<svg width="168" height="180" viewBox="0 0 168 180" fill="none" xmlns="http://www.w3.org/2000/svg">
<path d="M86.2443 15.4637C58.8085 12.1866 46.3416 32.2621 40.8082 45.2752C34.5851 59.9099 33.4017 84.8038 33.4017 84.8038C33.4017 84.8038 33.2108 89.1044 32.9971 93.6541C32.7833 98.2038 32.5466 111.351 33.3908 117.882C38.7719 159.512 67.0892 180.352 102.406 179.43C140.088 178.445 154.303 142.946 156.147 135.05C157.991 127.153 164.728 129.449 164.728 129.449C165.147 129.457 165.562 129.356 165.93 129.156C166.299 128.956 166.61 128.664 166.832 128.309C167.648 127.062 166.454 125.658 166.454 125.658C166.454 125.658 159.792 119.207 151.828 123.61C143.864 128.012 139.96 143.881 126.716 145.851C113.471 147.82 110.522 125.065 114.887 114.436C119.164 104.019 127.837 93.4341 127.837 70.6347C127.837 53.2625 120.583 19.2818 86.2443 15.4637Z" fill="white"/>
<path d="M126.482 145.877C126.631 145.863 126.714 145.851 126.714 145.851C126.635 145.862 126.56 145.867 126.482 145.877Z" fill="url(#paint0_radial)"/>
<path d="M109.637 134.672C112.018 138.211 115.547 140.88 117.845 142.376C112.386 135.855 111.763 122.042 114.886 114.436C116.489 110.533 118.709 106.606 120.859 102.021C123.091 96.8601 125.26 91.6935 125.898 87.9723C128.571 72.3867 106.959 70.8965 106.959 70.8965L79.3163 99.6924C78.7984 98.5019 69.7195 100.699 68.7557 101.585C65.0225 105.015 65.5831 111.69 70.215 115.9C73.7858 119.145 78.6852 120.738 83.0691 118.19C84.5268 117.343 86.1224 115.637 86.4573 113.989C88.8238 114.087 95.9231 114.819 101.141 120.135C104.513 123.572 105.857 129.055 109.637 134.672Z" fill="url(#paint1_radial)"/>
<path d="M93.3753 55.9945C92.7869 55.9792 92.2287 55.7307 91.8235 55.3038C91.4183 54.8769 91.1993 54.3065 91.2147 53.7181L91.3118 49.9968C91.3272 49.4084 91.5757 48.8502 92.0026 48.445C92.4295 48.0399 92.9999 47.8209 93.5882 47.8362C93.8796 47.8438 94.1666 47.9087 94.4328 48.0273C94.6991 48.1458 94.9394 48.3156 95.14 48.5269C95.3406 48.7383 95.4976 48.9872 95.6021 49.2592C95.7066 49.5313 95.7564 49.8213 95.7488 50.1126L95.6517 53.834C95.6363 54.4223 95.3878 54.9805 94.9609 55.3857C94.534 55.7909 93.9636 56.0099 93.3753 55.9945L93.3753 55.9945Z" fill="#1D1D1B"/>
<path d="M60.533 52.8782C60.501 54.1034 61.4684 55.1226 62.6936 55.1546C63.9189 55.1866 64.938 54.2193 64.97 52.994L65.0672 49.2727C65.0992 48.0474 64.1318 47.0283 62.9066 46.9963C61.6814 46.9643 60.6622 47.9316 60.6302 49.1569L60.533 52.8782Z" fill="#1D1D1B"/>
<path d="M81.5314 60.1117C81.4647 62.667 79.5218 64.6892 77.1917 64.6284C74.8617 64.5676 73.0269 62.4468 73.0936 59.8914" stroke="#1D1D1B" stroke-width="1.01417" stroke-miterlimit="10" stroke-linecap="round"/>
<path d="M14.9071 84.1406C16.9674 87.6812 18.9351 90.2575 16.8323 91.4811C14.7295 92.7047 11.3547 90.8264 9.29441 87.2858C7.23415 83.7452 7.26862 79.883 9.37141 78.6594C11.4742 77.4358 12.8469 80.6 14.9071 84.1406Z" fill="white"/>
<path d="M22.0971 106.997C25.8303 103.566 25.4233 97.0491 21.1879 92.4405C16.9526 87.8319 10.4928 86.8771 6.75959 90.308C3.02637 93.7389 3.43342 100.256 7.66876 104.865C11.9041 109.473 18.3639 110.428 22.0971 106.997Z" fill="white"/>
<path d="M36.813 62.7818C36.813 62.7818 19.8917 88.5113 17.3201 88.4158C14.7485 88.3204 23.92 102.695 23.92 102.695C23.92 102.695 35.7391 102.848 40.7026 107.621L45.6661 112.394L36.813 62.7818Z" fill="white"/>
<path d="M75.9404 90.9552C78.0006 94.4958 79.9683 97.0721 77.8655 98.2957C75.7627 99.5193 72.3879 97.641 70.3276 94.1004C68.2673 90.5597 68.3018 86.6976 70.4046 85.474C72.5074 84.2504 73.8801 87.4145 75.9404 90.9552Z" fill="white"/>
<path d="M83.1303 113.812C86.8635 110.381 86.4565 103.864 82.2211 99.2549C77.9858 94.6463 71.526 93.6916 67.7928 97.1225C64.0596 100.553 64.4666 107.071 68.702 111.679C72.9373 116.288 79.3971 117.243 83.1303 113.812Z" fill="white"/>
<path d="M105.994 66.4344C105.994 66.4344 80.923 95.3258 78.3514 95.2303C75.7797 95.1349 84.9512 109.51 84.9512 109.51C84.9512 109.51 124.361 97.6397 127.033 82.0541C129.706 66.4684 105.994 66.4344 105.994 66.4344Z" fill="white"/>
<path d="M98.7884 75.8098C97.3006 77.642 95.7582 79.4266 94.201 81.1986C92.6353 82.9627 91.0551 84.7154 89.4298 86.4274C87.8136 88.1487 86.153 89.831 84.4479 91.4744C83.5936 92.2963 82.7225 93.1032 81.804 93.873C81.3445 94.2585 80.8767 94.6371 80.3751 94.9969C80.118 95.1836 79.8515 95.3568 79.5765 95.516C79.4243 95.6039 79.2666 95.6819 79.1044 95.7496C78.8896 95.8442 78.6583 95.8952 78.4237 95.8995L77.9922 95.9007L77.8134 95.4973C77.3857 94.6065 76.9092 93.74 76.3862 92.9017C75.8671 92.0334 75.3403 91.1418 74.8444 90.251C74.3442 89.3639 73.8596 88.4746 73.3296 87.6521C73.0785 87.2527 72.7955 86.8743 72.4832 86.5207C72.2431 86.224 71.9248 86.0003 71.5642 85.8751C71.4208 85.8399 71.2708 85.8427 71.1288 85.8832C70.9545 85.935 70.7897 86.0147 70.641 86.1193C70.3125 86.3557 70.0501 86.6724 69.8787 87.039C69.5197 87.8768 69.3909 88.7952 69.5056 89.6995C69.7369 91.6287 70.468 93.4642 71.6264 95.0242L72.0845 95.6567L71.3437 95.8274C69.7922 96.1884 68.3997 97.0429 67.3753 98.2628C66.8535 98.87 66.4266 99.5528 66.1094 100.288C65.7954 101.031 65.5887 101.816 65.4955 102.617C65.3234 104.254 65.5547 105.909 66.1689 107.436C66.7872 108.99 67.669 110.425 68.7755 111.679C67.5548 110.501 66.5601 109.11 65.8405 107.574C65.1013 106.01 64.7658 104.286 64.8645 102.56C64.9752 100.796 65.6219 99.1088 66.7181 97.7231C67.2625 97.0202 67.9182 96.4111 68.6593 95.9199C69.4076 95.4312 70.2294 95.0654 71.0934 94.8366L70.8107 95.6397C69.4741 93.9585 68.6176 91.947 68.3321 89.8184C68.175 88.6957 68.3244 87.5514 68.7645 86.5067C69.0194 85.9444 69.4138 85.4566 69.9103 85.0896C70.1751 84.897 70.4701 84.7499 70.7833 84.6545C71.1315 84.5519 71.5 84.5393 71.8544 84.6181C72.1846 84.6966 72.4957 84.8403 72.7696 85.0408C73.0116 85.2163 73.2355 85.4155 73.4379 85.6355C73.8029 86.0409 74.1339 86.4757 74.4276 86.9355C75.0041 87.8198 75.4973 88.7157 76.0015 89.5963C76.5003 90.4794 77.0132 91.3357 77.5428 92.2096C78.0992 93.0952 78.5995 94.0149 79.0406 94.9633L78.4304 94.5611C78.4908 94.5553 78.5497 94.5388 78.6043 94.5122C78.7141 94.4669 78.8209 94.4147 78.9241 94.3559C79.1599 94.2216 79.3886 94.0752 79.6095 93.9175C80.068 93.5946 80.5201 93.2359 80.9659 92.8681C81.855 92.1268 82.7285 91.349 83.5961 90.5633C85.3249 88.9831 87.0126 87.3466 88.7041 85.7127L98.7884 75.8098Z" fill="#D3E5EA"/>
<path d="M165.903 129.16C165.046 128.617 164.143 128.151 163.204 127.766C161.008 126.883 157.31 127.074 155.605 129.737C150.722 137.369 140.533 177.586 90.8322 173.139C56.6816 170.082 39.9148 142.025 37.9521 118.445C37.4498 112.411 38.5407 103.22 35.3431 100.691C32.1455 98.1614 23.3484 97.5353 20.0147 101.973C18.0027 104.652 12.752 105.845 6.75781 103.762C7.04269 104.145 7.34689 104.513 7.66923 104.865C11.9046 109.473 18.3644 110.428 22.0976 106.997C23.3213 105.857 24.1494 104.356 24.4616 102.712C27.2691 102.834 30.059 103.219 32.7947 103.862C32.793 108.865 32.9328 114.344 33.3901 117.882C33.6921 120.218 34.0667 122.488 34.5138 124.69L34.5392 124.683C41.5315 158.514 64.5177 176.92 93.8257 179.212C93.9712 179.223 94.1155 179.237 94.2613 179.248C94.336 179.253 94.4112 179.257 94.4862 179.262C94.5156 179.264 94.5451 179.265 94.5745 179.267C95.2546 179.314 95.9386 179.35 96.6249 179.38C96.7504 179.385 96.8757 179.391 97.0015 179.396C97.702 179.423 98.4051 179.443 99.1121 179.452C99.5595 179.458 100.009 179.458 100.459 179.456C100.554 179.456 100.648 179.458 100.743 179.457C101.291 179.453 101.841 179.444 102.393 179.43C140.074 178.445 154.29 142.946 156.133 135.05C157.229 130.357 160.052 129.265 162.163 129.151L162.185 129.149C162.289 129.144 162.393 129.14 162.493 129.139C162.505 129.139 162.516 129.14 162.528 129.14C162.612 129.139 162.695 129.14 162.776 129.142C162.808 129.143 162.839 129.144 162.87 129.146C162.932 129.148 162.994 129.151 163.054 129.155C163.083 129.157 163.112 129.159 163.141 129.161C163.221 129.167 163.298 129.173 163.373 129.181C163.388 129.183 163.402 129.184 163.417 129.186C163.485 129.193 163.552 129.202 163.617 129.21C163.643 129.214 163.669 129.218 163.695 129.221C163.744 129.229 163.792 129.236 163.839 129.244C163.862 129.248 163.885 129.251 163.908 129.255C163.967 129.266 164.023 129.276 164.077 129.287C164.091 129.289 164.104 129.292 164.118 129.295C164.167 129.305 164.214 129.315 164.258 129.325C164.277 129.329 164.294 129.333 164.312 129.337C164.346 129.345 164.378 129.352 164.408 129.36C164.422 129.363 164.437 129.367 164.45 129.37C164.487 129.38 164.52 129.388 164.549 129.396L164.571 129.403C164.6 129.41 164.623 129.417 164.644 129.424L164.665 129.43C164.679 129.434 164.691 129.438 164.7 129.441L164.713 129.445L164.727 129.449C164.727 129.449 164.741 129.45 164.76 129.451C165.159 129.45 165.552 129.35 165.903 129.16Z" fill="url(#paint2_radial)"/>
<path d="M29.4011 51.7703C29.1028 50.8994 28.631 50.0981 28.0142 49.4148C26.8408 48.0472 25.2728 47.0763 23.5255 46.6355C22.6038 46.386 21.6603 46.2257 20.7078 46.1569C20.6891 46.1553 20.6704 46.1537 20.6513 46.1519L18.3596 36.6663C19.1103 36.9871 19.7732 37.4829 20.2931 38.1124C20.772 38.7021 21.1348 39.3773 21.3623 40.1022C21.4198 40.2795 21.5424 40.4284 21.7052 40.519C21.8681 40.6096 22.0592 40.6353 22.2402 40.5908L22.2561 40.5867L24.8946 39.888C24.9907 39.8627 25.0807 39.8183 25.1593 39.7575C25.2379 39.6967 25.3035 39.6206 25.3521 39.5339C25.4007 39.4473 25.4314 39.3517 25.4423 39.2529C25.4532 39.1541 25.4441 39.0541 25.4156 38.9589C25.3754 38.8256 25.3397 38.7163 25.3033 38.6148C24.0824 35.2096 21.6806 33.0448 18.1646 32.1805C17.8804 32.1106 17.5901 32.0616 17.3094 32.0142L17.2797 32.0092C17.2168 31.9985 17.2168 31.9985 17.2017 31.9349C16.972 30.9663 16.734 29.9829 16.5038 29.0317L16.3689 28.4743C16.3402 28.356 16.2657 28.254 16.1619 28.1905C16.058 28.1271 15.9332 28.1074 15.8149 28.1359L13.4508 28.707C13.3325 28.7357 13.2305 28.8102 13.167 28.9141C13.1035 29.018 13.0839 29.1428 13.1123 29.2612L13.7553 31.9225C12.6759 32.0586 11.6039 32.2486 10.5435 32.4919C10.1632 32.5837 9.80665 32.6816 9.45896 32.7896L8.85499 30.2897C8.82627 30.1714 8.7518 30.0694 8.64791 30.0059C8.54403 29.9425 8.41921 29.9228 8.30085 29.9513L5.9369 30.5224C5.8186 30.5511 5.71653 30.6256 5.65307 30.7295C5.58961 30.8333 5.56995 30.9582 5.5984 31.0765L6.36364 34.2439C6.3075 34.283 6.25134 34.3219 6.19516 34.3606C6.00503 34.492 5.80842 34.6278 5.61994 34.7702C4.22986 35.7698 3.12722 37.1175 2.4227 38.6781C1.7607 40.1983 1.60301 41.8906 1.97275 43.5069C2.22028 44.7566 2.72766 45.9404 3.462 46.9814C4.54549 48.4455 6.12999 49.4595 7.91327 49.83C8.45653 49.9561 9.01934 50.0439 9.56363 50.1288C9.77765 50.1622 9.99793 50.1966 10.2176 50.2333L12.899 61.3318C11.7426 61.0005 10.6926 60.3735 9.85245 59.5126C9.12043 58.7541 8.55315 57.8526 8.18623 56.8644C8.10005 56.644 7.93714 56.4622 7.72753 56.3524C7.51791 56.2426 7.27568 56.2123 7.04545 56.2669C7.01692 56.2738 6.98831 56.2821 6.96041 56.2916C6.34511 56.5001 5.45764 56.8059 4.81216 57.0386C4.68935 57.0829 4.57664 57.1512 4.48068 57.2397C4.38473 57.3283 4.30746 57.4351 4.25344 57.5539C4.19941 57.6727 4.16973 57.8012 4.16614 57.9317C4.16255 58.0622 4.18512 58.1921 4.23252 58.3137C4.31497 58.525 4.38103 58.6858 4.44675 58.8353C5.91379 62.1726 8.3802 64.3756 11.7775 65.3833C12.3276 65.5345 12.8862 65.653 13.4503 65.7381C13.5911 65.7621 13.7318 65.7862 13.872 65.8112C13.9968 65.8335 14.0043 65.8461 14.0257 65.9381C14.2152 66.7505 14.5782 68.2509 14.7777 69.073C14.8191 69.2423 14.9259 69.3883 15.0747 69.4791C15.2236 69.5698 15.4023 69.5979 15.5718 69.5572L17.5494 69.0793C17.719 69.0382 17.8653 68.9314 17.9562 68.7825C18.0472 68.6336 18.0754 68.4547 18.0346 68.2851L17.4321 65.7914C18.1496 65.6927 18.8615 65.5573 19.5651 65.3857C20.2428 65.2219 20.937 65.0234 21.6818 64.7801L22.2801 67.2566C22.3213 67.4262 22.428 67.5725 22.577 67.6634C22.7259 67.7544 22.9048 67.7826 23.0744 67.7418L25.0634 67.2613C25.2328 67.2201 25.379 67.1135 25.4699 66.9648C25.5609 66.816 25.5891 66.6373 25.5485 66.4678C25.3563 65.67 25.0047 64.2138 24.8092 63.4246C24.804 63.405 24.8006 63.385 24.799 63.3648C24.814 63.3489 24.8316 63.3357 24.851 63.3256C26.1625 62.5664 27.3048 61.5469 28.2077 60.3298C29.5483 58.5112 30.1402 56.2476 29.8613 54.0055C29.7786 53.2476 29.6246 52.4992 29.4011 51.7703ZM21.7027 50.5296C21.739 50.5381 21.7752 50.5466 21.8111 50.555C22.0778 50.6173 22.3297 50.6761 22.5776 50.7498C23.9276 51.1508 24.837 51.8885 25.3578 53.0051C25.6031 53.6011 25.7237 54.2411 25.7122 54.8855C25.7532 56.4827 25.1079 57.8206 23.7414 58.9678L21.7027 50.5296ZM10.9034 38.7673L10.4513 36.8968C10.8267 36.7757 11.2176 36.6659 11.6156 36.5697C12.6451 36.3283 13.6905 36.1603 14.7438 36.0671L17.1702 46.11C17.0609 46.1128 16.9517 46.1158 16.8427 46.119C16.453 46.1302 16.0499 46.1417 15.6566 46.1365C15.2025 46.1306 14.7402 46.1172 14.2932 46.1042C13.8067 46.0901 13.3036 46.0755 12.8079 46.0704C12.6694 46.0689 12.6591 46.0605 12.6255 45.9198C12.056 43.5345 11.47 41.111 10.9034 38.7673ZM13.6996 50.3083L18.1925 50.3291L20.6889 60.662C20.0013 60.9074 19.3015 61.1173 18.5923 61.2908L18.592 61.2908C17.885 61.464 17.1669 61.5882 16.4427 61.6624L13.6996 50.3083ZM5.99403 41.4596C6.11615 40.4653 6.58526 39.546 7.31871 38.8637C7.35627 38.8246 7.39554 38.7857 7.43633 38.7461L9.13995 45.7975C7.77582 45.522 6.9244 44.8869 6.47125 43.813C6.12164 43.0795 5.95775 42.2713 5.99403 41.4596Z" fill="url(#paint3_linear)"/>
<path d="M140.423 23.7155C140.525 22.9844 140.478 22.2401 140.284 21.5277C139.941 20.124 139.171 18.8611 138.081 17.9124C137.512 17.3998 136.895 16.9431 136.238 16.5487C136.226 16.5407 136.213 16.5328 136.2 16.5246L137.999 8.90795C138.419 9.40956 138.714 10.0046 138.858 10.6433C138.986 11.2388 139.001 11.8534 138.901 12.4544C138.878 12.6021 138.912 12.753 138.995 12.8769C139.079 13.0008 139.207 13.0884 139.352 13.1221L139.365 13.125L141.506 13.5815C141.584 13.5983 141.664 13.5991 141.743 13.5841C141.821 13.5691 141.895 13.5384 141.961 13.4941C142.028 13.4497 142.084 13.3924 142.128 13.3257C142.171 13.259 142.201 13.1842 142.215 13.1057C142.235 12.9958 142.249 12.9046 142.26 12.8188C142.467 11.4822 142.32 10.1146 141.833 8.85277C141.346 7.59089 140.536 6.47896 139.485 5.62815C139.307 5.47517 139.117 5.33485 138.933 5.19919L138.914 5.18484C138.873 5.15447 138.873 5.15447 138.885 5.10343C139.072 4.32729 139.258 3.53745 139.438 2.77359L139.544 2.3259C139.566 2.23087 139.55 2.13088 139.499 2.04784C139.447 1.9648 139.365 1.90551 139.27 1.88297L137.372 1.43466C137.277 1.41233 137.177 1.42861 137.094 1.47993C137.011 1.53124 136.951 1.61341 136.929 1.7084L136.424 3.84539C135.603 3.55143 134.767 3.29881 133.92 3.08848C133.615 3.01637 133.324 2.95713 133.036 2.90838L133.51 0.901072C133.533 0.806033 133.516 0.706015 133.465 0.622964C133.414 0.539912 133.332 0.480608 133.237 0.458063L131.338 0.00977786C131.243 -0.0125568 131.143 0.00371948 131.06 0.0550359C130.977 0.106352 130.918 0.188518 130.895 0.283507L130.295 2.8268C130.24 2.83443 130.186 2.84191 130.132 2.84924C129.948 2.87428 129.758 2.90019 129.572 2.93373C128.215 3.145 126.938 3.70948 125.868 4.5705C124.844 5.41808 124.117 6.57157 123.796 7.86191C123.52 8.84568 123.454 9.87644 123.602 10.8874C123.846 12.3275 124.612 13.6272 125.754 14.5387C126.097 14.8258 126.468 15.0926 126.826 15.3507C126.967 15.4521 127.112 15.5566 127.256 15.6625L125.152 24.5742C124.444 23.918 123.92 23.0888 123.631 22.1684C123.383 21.3605 123.304 20.5099 123.399 19.67C123.418 19.4811 123.367 19.292 123.257 19.1374C123.147 18.9829 122.984 18.8734 122.8 18.829C122.777 18.8236 122.753 18.8192 122.73 18.8158C122.214 18.742 121.469 18.639 120.922 18.5716C120.819 18.5587 120.713 18.5668 120.612 18.5953C120.512 18.6239 120.418 18.6723 120.336 18.7377C120.254 18.8031 120.186 18.8843 120.137 18.9763C120.087 19.0684 120.056 19.1695 120.046 19.2737C120.028 19.4547 120.017 19.5937 120.01 19.7245C119.9 21.0859 120.101 22.4544 120.598 23.7264C121.096 24.9984 121.876 26.1405 122.881 27.0661C123.219 27.3736 123.576 27.6608 123.949 27.9262C124.041 27.9944 124.132 28.0628 124.224 28.1314C124.305 28.1926 124.306 28.2043 124.288 28.2779C124.129 28.9277 123.845 30.1327 123.69 30.7931C123.658 30.9292 123.681 31.0724 123.755 31.1913C123.828 31.3102 123.946 31.395 124.082 31.4273L125.67 31.8023C125.806 31.8344 125.95 31.811 126.069 31.7375C126.188 31.6639 126.273 31.5461 126.305 31.41L126.778 29.4076C127.327 29.5971 127.885 29.7583 128.451 29.8905C128.995 30.019 129.564 30.1286 130.185 30.2246L129.715 32.2131C129.683 32.3493 129.706 32.4927 129.78 32.6118C129.854 32.7308 129.971 32.8158 130.108 32.8481L131.705 33.2253C131.841 33.2573 131.984 33.234 132.103 33.1605C132.222 33.0871 132.307 32.9695 132.339 32.8335C132.491 32.1931 132.767 31.0239 132.913 30.3884C132.917 30.3725 132.922 30.357 132.928 30.3419C132.944 30.336 132.962 30.3329 132.979 30.3328C134.193 30.265 135.379 29.9497 136.466 29.4063C138.085 28.5912 139.329 27.1864 139.942 25.4814C140.157 24.9092 140.318 24.3179 140.423 23.7155ZM135.365 20.0375L135.433 20.0949C135.602 20.2361 135.761 20.3695 135.911 20.5121C136.289 20.8342 136.591 21.2367 136.793 21.6902C136.996 22.1437 137.095 22.6367 137.083 23.1333C137.042 23.6486 136.896 24.1501 136.655 24.607C136.105 25.7644 135.158 26.4876 133.765 26.8131L135.365 20.0375ZM131.903 7.70835L132.257 6.20633C132.57 6.25579 132.889 6.3189 133.209 6.39439C134.033 6.5948 134.842 6.85356 135.629 7.16869L133.725 15.2328C133.645 15.1951 133.566 15.1577 133.487 15.1205C133.204 14.9873 132.912 14.8494 132.632 14.7032C132.309 14.5343 131.984 14.3571 131.668 14.1858C131.326 13.9994 130.971 13.8066 130.618 13.6233C130.52 13.572 130.515 13.5623 130.542 13.4494C130.999 11.5365 131.459 9.59042 131.903 7.70835ZM129.72 16.9783L132.927 18.6216L130.967 26.9187C130.386 26.845 129.81 26.7414 129.239 26.6085L129.239 26.6084C128.671 26.476 128.112 26.3046 127.567 26.0952L129.72 16.9783ZM127.415 7.85487C127.863 7.18783 128.531 6.70022 129.303 6.47796C129.345 6.46356 129.387 6.44998 129.43 6.43648L128.093 12.0985C127.217 11.4069 126.838 10.644 126.903 9.71143C126.919 9.05999 127.095 8.42241 127.415 7.85487Z" fill="url(#paint4_linear)"/>
<path d="M161.153 93.1265C161.408 91.9464 161.421 90.7268 161.191 89.5415C160.833 87.277 159.8 85.2612 158.033 83.3788C157.167 82.4741 156.216 81.6547 155.193 80.9321C155.173 80.9176 155.154 80.903 155.133 80.8881L158.987 68.6827C159.613 69.5516 160.021 70.5577 160.179 71.6168C160.317 72.6036 160.267 73.6078 160.031 74.576C159.976 74.8141 160.012 75.0643 160.134 75.2764C160.255 75.4886 160.453 75.6469 160.686 75.7195L160.707 75.7258L164.143 76.7289C164.268 76.7656 164.399 76.7767 164.529 76.7617C164.658 76.7466 164.783 76.7057 164.897 76.6412C165.01 76.5768 165.109 76.4903 165.188 76.3868C165.268 76.2832 165.325 76.1648 165.358 76.0386C165.403 75.8616 165.437 75.7146 165.465 75.576C166.401 70.9245 165.171 66.8659 161.808 63.5129C161.536 63.2419 161.243 62.9901 160.96 62.7466L160.93 62.7209C160.867 62.6664 160.867 62.6664 160.893 62.5846C161.291 61.3413 161.69 60.0756 162.076 58.8514L162.302 58.134C162.35 57.9817 162.336 57.8167 162.262 57.675C162.189 57.5334 162.062 57.4268 161.91 57.3785L158.868 56.4181C158.715 56.3702 158.55 56.3846 158.409 56.4583C158.267 56.532 158.16 56.6588 158.112 56.811L157.031 60.2355C155.726 59.6568 154.394 59.1439 153.038 58.6985C152.549 58.544 152.082 58.4123 151.618 58.2981L152.634 55.0814C152.682 54.9291 152.667 54.764 152.594 54.6223C152.52 54.4807 152.393 54.374 152.241 54.3258L149.199 53.3654C149.047 53.3175 148.882 53.3319 148.74 53.4056C148.598 53.4793 148.492 53.6061 148.444 53.7583L147.157 57.8339C147.067 57.8398 146.978 57.8454 146.888 57.8508C146.586 57.8695 146.273 57.8888 145.965 57.921C143.727 58.1017 141.575 58.8681 139.726 60.1432C137.953 61.4019 136.629 63.1955 135.949 65.2612C135.38 66.8324 135.148 68.5056 135.267 70.1723C135.492 72.5507 136.584 74.7631 138.336 76.3876C138.861 76.8972 139.433 77.3771 139.987 77.8413C140.205 78.0238 140.429 78.2117 140.651 78.4018L136.142 92.6826C135.067 91.527 134.313 90.1113 133.953 88.5752C133.645 87.2275 133.618 85.8306 133.876 84.4723C133.929 84.1664 133.869 83.8518 133.708 83.5865C133.547 83.3211 133.295 83.1229 133 83.0283C132.963 83.0167 132.925 83.0066 132.888 82.9983C132.055 82.8156 130.851 82.5576 129.969 82.3816C129.801 82.3481 129.628 82.3485 129.46 82.3829C129.293 82.4173 129.133 82.4849 128.992 82.5817C128.851 82.6786 128.731 82.8027 128.638 82.9468C128.546 83.0909 128.483 83.2521 128.454 83.4208C128.403 83.714 128.368 83.9394 128.341 84.1518C127.727 88.8936 129.004 93.0389 132.137 96.4726C132.652 97.0151 133.199 97.5267 133.775 98.0045C133.917 98.1269 134.058 98.2495 134.199 98.3724C134.324 98.482 134.324 98.5012 134.286 98.6191C133.948 99.6597 133.339 101.591 133.006 102.649C132.938 102.867 132.959 103.104 133.064 103.306C133.17 103.509 133.352 103.662 133.57 103.731L136.114 104.534C136.333 104.603 136.569 104.582 136.772 104.477C136.975 104.371 137.128 104.189 137.197 103.971L138.21 100.762C139.083 101.138 139.974 101.468 140.881 101.752C141.753 102.027 142.667 102.275 143.668 102.506L142.662 105.693C142.593 105.911 142.614 106.148 142.72 106.351C142.825 106.554 143.007 106.707 143.225 106.776L145.785 107.584C146.003 107.653 146.239 107.632 146.442 107.527C146.645 107.421 146.798 107.24 146.867 107.022C147.192 105.995 147.784 104.122 148.099 103.103C148.106 103.078 148.116 103.053 148.128 103.029C148.156 103.021 148.184 103.018 148.213 103.02C150.2 103.056 152.174 102.685 154.012 101.93C156.75 100.796 158.949 98.6554 160.155 95.9486C160.576 95.0414 160.91 94.0966 161.153 93.1265ZM153.348 86.5168C153.383 86.551 153.418 86.585 153.452 86.6188C153.71 86.8694 153.953 87.1061 154.181 87.3569C155.425 88.722 155.947 90.1667 155.775 91.7736C155.647 92.6091 155.349 93.4095 154.899 94.1254C153.863 95.9469 152.232 97.0121 149.92 97.3746L153.348 86.5168ZM149.19 65.9899L149.95 63.5829C150.453 63.7013 150.967 63.8429 151.479 64.0046C152.799 64.431 154.086 64.9507 155.333 65.5597L151.252 78.4823C151.128 78.4113 151.003 78.3407 150.878 78.2705C150.433 78.019 149.973 77.7588 149.535 77.4865C149.029 77.1721 148.519 76.8438 148.025 76.5263C147.488 76.1808 146.933 75.8235 146.38 75.4819C146.226 75.3864 146.22 75.37 146.277 75.1892C147.254 72.1246 148.238 69.0059 149.19 65.9899V65.9899ZM144.51 80.8455L149.542 83.9131L145.344 97.2089C144.405 97.0185 143.477 96.78 142.563 96.4943L142.563 96.4942C141.651 96.2096 140.761 95.8624 139.897 95.4551L144.51 80.8455ZM141.852 65.6868C142.57 64.7132 143.602 64.0721 145.099 63.6692C145.168 63.6507 145.238 63.6336 145.311 63.6169L142.446 72.6901C141.101 71.4563 140.575 70.1662 140.794 68.6531C140.898 67.5925 141.262 66.5738 141.852 65.6868Z" fill="url(#paint5_linear)"/>
<defs>
<radialGradient id="paint0_radial" cx="0" cy="0" r="1" gradientUnits="userSpaceOnUse" gradientTransform="translate(132.44 129.433) scale(46.8013 46.8035)">
<stop offset="0.32445" stop-color="white"/>
<stop offset="0.80091" stop-color="#A0B6BF" stop-opacity="0.9"/>
</radialGradient>
<radialGradient id="paint1_radial" cx="0" cy="0" r="1" gradientUnits="userSpaceOnUse" gradientTransform="translate(23575.9 15871.6) scale(14300 17086.1)">
<stop offset="0.32445" stop-color="white"/>
<stop offset="0.80091" stop-color="#A0B6BF" stop-opacity="0.9"/>
</radialGradient>
<radialGradient id="paint2_radial" cx="0" cy="0" r="1" gradientUnits="userSpaceOnUse" gradientTransform="translate(39502.1 35292) scale(25527.8 12951.8)">
<stop offset="0.32445" stop-color="white"/>
<stop offset="0.80091" stop-color="#A0B6BF" stop-opacity="0.9"/>
</radialGradient>
<linearGradient id="paint3_linear" x1="20.0682" y1="68.4708" x2="10.6261" y2="29.3895" gradientUnits="userSpaceOnUse">
<stop offset="0.32445" stop-color="#F8B032"/>
<stop offset="0.8069" stop-color="#FFC869"/>
</linearGradient>
<linearGradient id="paint4_linear" x1="127.693" y1="32.28" x2="135.104" y2="0.899006" gradientUnits="userSpaceOnUse">
<stop offset="0.32445" stop-color="#E6A42F"/>
<stop offset="0.8069" stop-color="#FFC869"/>
</linearGradient>
<linearGradient id="paint5_linear" x1="139.355" y1="105.558" x2="155.233" y2="55.2705" gradientUnits="userSpaceOnUse">
<stop offset="0.32445" stop-color="#F8B133"/>
<stop offset="0.8069" stop-color="#FFC869"/>
</linearGradient>
</defs>
</svg>
