<svg width="359" height="342" viewBox="0 0 359 342" fill="none" xmlns="http://www.w3.org/2000/svg">
<g filter="url(#filter0_d)">
<path fill-rule="evenodd" clip-rule="evenodd" d="M174.422 27.4178C179.992 27.3517 194.897 19.3303 202.91 22.1116C217.705 27.2474 227.912 45.6573 231.031 70.9799C231.682 76.3069 231.991 81.67 231.958 87.0364L119.592 77.4131C120.552 72.1932 121.837 67.0383 123.439 61.9785C130.663 39.2338 148.171 23.7209 158.988 20.3304C165.95 18.1483 168.204 27.4917 174.422 27.4178Z" fill="#E5B585"/>
<path fill-rule="evenodd" clip-rule="evenodd" d="M231.031 70.9799C230.908 69.9802 230.771 68.9935 230.625 68.0159C230.59 67.776 230.552 67.5383 230.515 67.2998C230.394 66.5169 230.266 65.7411 230.132 64.9724C230.096 64.7721 230.062 64.5714 230.026 64.3723C229.857 63.44 229.679 62.518 229.492 61.6063C229.488 61.5877 229.485 61.5687 229.481 61.5502C229.305 60.6989 229.115 59.8604 228.922 59.0282C228.765 58.3571 228.602 57.6927 228.434 57.035L228.431 57.0228C227.617 53.8303 226.617 50.6879 225.437 47.6117C212.826 43.1119 196.844 39.7678 179.53 38.3804C163.055 37.0602 147.57 37.6891 134.882 39.84C129.857 46.5283 125.99 54.0115 123.439 61.9785C121.837 67.0383 120.552 72.1932 119.592 77.4131L231.958 87.0364C231.991 81.6699 231.682 76.3069 231.031 70.9799Z" fill="#422A2F"/>
<path fill-rule="evenodd" clip-rule="evenodd" d="M168.737 50.4013C223.345 55.5026 271.504 43.2764 274.364 52.7408L274.33 61.5564L268.55 66.1533L86.611 47.2247L83.0703 46.894L83.7482 39.6371C85.3054 28.4219 114.13 45.3002 168.737 50.4013Z" fill="#E5B585"/>
<path fill-rule="evenodd" clip-rule="evenodd" d="M166.937 54.7977C221.544 59.899 275.738 45.2035 274.33 60.2806C272.921 75.3584 228.351 112.38 173.743 107.278C119.136 102.177 81.6611 60.6959 83.0696 45.6181C84.4781 30.5411 112.33 49.6965 166.937 54.7977Z" fill="#B7895C"/>
<path d="M175.587 59.7087C136.094 54.9914 118.148 83.8895 110.183 102.621C101.225 123.688 103.267 122.04 101.344 124.101C100.451 125.058 99.5218 159.521 99.5218 159.521C99.5218 159.521 99.2471 165.712 98.9394 172.261C98.6317 178.81 98.2909 197.735 99.5061 207.136C107.252 267.062 148.014 297.061 198.852 295.732C253.093 294.315 273.555 243.215 276.21 231.849C278.864 220.482 288.561 223.787 288.561 223.787C289.165 223.799 289.762 223.653 290.292 223.366C290.823 223.078 291.271 222.657 291.591 222.145C292.765 220.351 291.047 218.329 291.047 218.329C291.047 218.329 281.457 209.044 269.993 215.381C258.529 221.719 252.91 244.561 233.844 247.396C214.779 250.232 217.584 207.71 220.744 191.474C223.72 176.186 235.458 171.944 235.458 139.126C235.458 114.119 225.016 65.2047 175.587 59.7087Z" fill="white"/>
<path d="M175.48 113.053C174.636 112.99 173.85 112.594 173.298 111.951C172.745 111.309 172.47 110.474 172.534 109.629L172.934 104.285C172.966 103.867 173.079 103.459 173.268 103.084C173.457 102.71 173.718 102.376 174.036 102.103C174.354 101.829 174.723 101.621 175.122 101.49C175.52 101.358 175.941 101.307 176.359 101.338C176.777 101.37 177.185 101.483 177.56 101.672C177.934 101.861 178.268 102.122 178.541 102.44C178.815 102.758 179.023 103.127 179.154 103.526C179.286 103.924 179.337 104.345 179.306 104.763L178.905 110.107C178.842 110.951 178.445 111.736 177.803 112.289C177.161 112.842 176.325 113.117 175.48 113.053Z" fill="#1D1D1B"/>
<path d="M128.475 106.269C128.343 108.029 129.662 109.562 131.422 109.694C133.181 109.826 134.714 108.506 134.846 106.747L135.247 101.403C135.379 99.644 134.06 98.1109 132.3 97.9789C130.541 97.847 129.008 99.1663 128.876 100.926L128.475 106.269Z" fill="#1D1D1B"/>
<path d="M158.158 118.142C157.883 121.811 154.948 124.583 151.602 124.332C148.256 124.081 145.767 120.903 146.042 117.234" stroke="#1D1D1B" stroke-width="1.45987" stroke-miterlimit="10" stroke-linecap="round"/>
<path d="M99.8557 107.89C98.5907 113.649 98.1667 118.297 94.7462 117.545C91.3257 116.794 89.5784 111.516 90.8434 105.757C92.1085 99.9971 95.9069 95.9373 99.3274 96.6887C102.748 97.44 101.121 102.131 99.8557 107.89Z" fill="white"/>
<path d="M104.879 123.187C104.879 123.187 101.578 126.986 99.6078 122.729C97.6377 118.473 98.6179 112.066 98.6179 112.066L91.8722 115.676L86.9258 136.561C86.9258 136.561 88.5746 144.072 91.8722 148.744C93.9436 151.621 96.5747 154.052 99.6078 155.888L104.879 123.187Z" fill="white"/>
<path d="M286.324 221.32C283.164 220.049 277.84 220.324 275.386 224.159C268.357 235.144 253.318 291.717 181.775 285.314C89.221 277.031 103.604 154.681 103.604 154.681C103.512 153.917 103.235 153.186 102.798 152.552C102.362 151.919 101.778 151.4 101.096 151.042L99.7571 150.337C99.754 150.43 95.1205 147.396 92.6949 144.166C89.9869 140.56 88.325 135.265 87.7073 133.036L86.8828 136.517C86.8828 136.517 88.5316 144.029 91.8292 148.7C93.9007 151.578 96.5318 154.008 99.5649 155.845L99.5866 155.71C99.5167 158.023 99.4774 159.478 99.4774 159.478C99.4774 159.478 99.2027 165.669 98.895 172.218C98.7814 174.635 98.6637 178.74 98.6209 183.427C98.5923 189.251 98.6798 196.749 99.0154 202.294C99.1329 204.058 99.2795 205.684 99.4617 207.093C99.5866 208.06 99.7204 209.019 99.863 209.969C108.13 263.077 142.313 291.923 186.457 295.375C186.666 295.391 186.874 295.412 187.084 295.427C187.232 295.438 187.382 295.445 187.53 295.455C189.687 295.603 191.866 295.692 194.066 295.722C194.71 295.73 195.357 295.729 196.005 295.727C196.142 295.727 196.278 295.729 196.414 295.728C197.203 295.723 197.995 295.71 198.789 295.689C253.03 294.272 273.493 243.172 276.147 231.805C277.808 224.691 282.228 223.325 285.303 223.298C286.391 223.281 287.475 223.432 288.517 223.744C288.517 223.744 288.536 223.745 288.564 223.746C289.139 223.745 289.704 223.602 290.21 223.328C288.976 222.546 287.676 221.875 286.324 221.32Z" fill="url(#paint0_radial)"/>
<path d="M286.324 221.32C283.164 220.049 277.84 220.324 275.386 224.159C268.357 235.144 253.318 291.717 181.775 285.314C89.221 277.031 103.604 154.681 103.604 154.681C103.512 153.917 103.235 153.186 102.798 152.552C102.362 151.919 101.778 151.4 101.096 151.042L99.7571 150.337C99.754 150.43 95.1205 147.396 92.6949 144.166C89.9869 140.56 88.325 135.265 87.7073 133.036L86.8828 136.517C86.8828 136.517 88.5316 144.029 91.8292 148.7C93.9007 151.578 96.5318 154.008 99.5649 155.845L99.5866 155.71C99.5167 158.023 99.4774 159.478 99.4774 159.478C99.4774 159.478 99.2027 165.669 98.895 172.218C98.7814 174.635 98.6637 178.74 98.6209 183.427C98.5923 189.251 98.6798 196.749 99.0154 202.294C99.1329 204.058 99.2795 205.684 99.4617 207.093C99.5866 208.06 99.7204 209.019 99.863 209.969C108.13 263.077 142.313 291.923 186.457 295.375C186.666 295.391 186.874 295.412 187.084 295.427C187.232 295.438 187.382 295.445 187.53 295.455C189.687 295.603 191.866 295.692 194.066 295.722C194.71 295.73 195.357 295.729 196.005 295.727C196.142 295.727 196.278 295.729 196.414 295.728C197.203 295.723 197.995 295.71 198.789 295.689C253.03 294.272 273.493 243.172 276.147 231.805C277.808 224.691 282.228 223.325 285.303 223.298C286.391 223.281 287.475 223.432 288.517 223.744C288.517 223.744 288.536 223.745 288.564 223.746C289.139 223.745 289.704 223.602 290.21 223.328C288.976 222.546 287.676 221.875 286.324 221.32Z" fill="url(#paint1_linear)"/>
<path d="M85.2151 139.119C92.5136 139.119 98.4302 131.815 98.4302 122.805C98.4302 113.795 92.5136 106.492 85.2151 106.492C77.9166 106.492 72 113.795 72 122.805C72 131.815 77.9166 139.119 85.2151 139.119Z" fill="white"/>
<path d="M95.4026 112.415C96.8688 115.193 97.6253 118.29 97.6047 121.431C97.6047 130.441 91.6881 137.745 84.3897 137.745C80.2891 137.745 76.625 135.439 74.2012 131.821C76.5684 136.219 80.6161 139.119 85.2141 139.119C92.5125 139.119 98.4292 131.815 98.4292 122.805C98.4663 119.119 97.4133 115.505 95.4026 112.415Z" fill="url(#paint2_radial)"/>
<path d="M220.743 191.474C221.33 188.38 222.345 185.382 223.76 182.568C224.089 181.857 229.147 172.019 229.147 172.019C229.147 172.019 225.335 178.951 216.462 177.735C207.943 176.567 180.214 157.187 179.673 156.163C185.835 154.052 188.568 148.292 187.722 140.855C186.76 132.392 179.811 126.234 172.202 127.099C164.592 127.964 158.02 131.856 160.165 143.988C161.649 152.376 168.076 158.609 175.686 157.744C175.764 157.735 175.84 157.721 175.918 157.711C176.729 159.97 180.772 172.142 189.663 181.307C200.562 192.543 207.794 192.828 210.589 194.603C209.166 202.413 208.863 210.386 209.691 218.282C211.687 239.564 222.92 245.828 229.357 247.148C215.272 243.031 218.071 206.339 220.743 191.474Z" fill="url(#paint3_radial)"/>
<path d="M220.743 191.474C221.33 188.38 222.345 185.382 223.76 182.568C224.089 181.857 229.147 172.019 229.147 172.019C229.147 172.019 225.335 178.951 216.462 177.735C207.943 176.567 180.214 157.187 179.673 156.163C185.835 154.052 188.568 148.292 187.722 140.855C186.76 132.392 179.811 126.234 172.202 127.099C164.592 127.964 158.02 131.856 160.165 143.988C161.649 152.376 168.076 158.609 175.686 157.744C175.764 157.735 175.84 157.721 175.918 157.711C176.729 159.97 180.772 172.142 189.663 181.307C200.562 192.543 207.794 192.828 210.589 194.603C209.166 202.413 208.863 210.386 209.691 218.282C211.687 239.564 222.92 245.828 229.357 247.148C215.272 243.031 218.071 206.339 220.743 191.474Z" fill="url(#paint4_radial)"/>
<path d="M186.725 120.765C185.46 126.525 185.036 131.172 181.615 130.421C178.195 129.669 176.448 124.391 177.713 118.632C178.978 112.873 182.776 108.813 186.197 109.564C189.617 110.315 187.99 115.006 186.725 120.765Z" fill="white"/>
<path d="M228.313 140.5C228.313 140.5 189.912 139.268 187.942 135.011C185.972 130.754 186.952 124.347 186.952 124.347L180.206 127.958L175.26 148.843C175.26 148.843 176.894 158.999 188.879 169.216C214.023 190.65 226.308 175.195 226.308 175.195L228.313 140.5Z" fill="white"/>
<path d="M172.084 151.994C179.383 151.994 185.299 144.69 185.299 135.681C185.299 126.671 179.383 119.367 172.084 119.367C164.786 119.367 158.869 126.671 158.869 135.681C158.869 144.69 164.786 151.994 172.084 151.994Z" fill="white"/>
<path d="M162.022 146.259C161.448 145.606 160.974 144.872 160.614 144.081C160.242 143.295 159.934 142.479 159.691 141.644C159.202 139.972 158.879 138.255 158.726 136.52C158.656 135.652 158.593 134.786 158.592 133.906C158.598 133.028 158.664 132.151 158.79 131.282C159.044 129.534 159.554 127.834 160.305 126.236C161.788 122.956 164.44 120.345 167.744 118.915C169.416 118.229 171.225 117.942 173.026 118.077C174.829 118.229 176.573 118.795 178.122 119.73L177.391 120.082C177.59 118.529 177.995 117.01 178.595 115.563C179.183 114.1 180.013 112.745 181.049 111.556C181.579 110.954 182.187 110.425 182.856 109.984C183.544 109.526 184.324 109.222 185.141 109.094C185.991 108.959 186.863 109.1 187.627 109.497C188.025 109.72 188.356 110.047 188.583 110.443C188.794 110.821 188.933 111.234 188.994 111.662C189.088 112.457 189.071 113.261 188.943 114.051C188.836 114.823 188.681 115.578 188.514 116.326C188.175 117.82 187.787 119.291 187.442 120.769C187.095 122.252 186.736 123.731 186.417 125.213C186.117 126.689 185.797 128.198 185.972 129.68L185.969 129.666C186.269 130.734 186.736 131.747 187.354 132.668C187.948 133.615 188.735 134.426 189.663 135.049C188.7 134.463 187.871 133.681 187.229 132.754C186.568 131.835 186.057 130.816 185.715 129.737L185.714 129.732L185.712 129.723C185.596 128.956 185.578 128.177 185.66 127.406C185.726 126.639 185.839 125.88 185.968 125.126C186.229 123.618 186.565 122.133 186.868 120.642C187.176 119.147 187.527 117.663 187.823 116.18C187.969 115.438 188.101 114.696 188.184 113.957C188.282 113.24 188.282 112.512 188.183 111.795C188.155 111.476 188.054 111.168 187.885 110.896C187.717 110.624 187.487 110.396 187.214 110.23C186.61 109.932 185.927 109.833 185.264 109.946C183.897 110.154 182.673 111.068 181.721 112.154C180.764 113.274 180 114.547 179.463 115.919C178.91 117.295 178.536 118.737 178.352 120.209L178.26 120.949L177.621 120.561C176.209 119.678 174.607 119.143 172.947 118.999C171.288 118.855 169.618 119.107 168.074 119.733C166.52 120.363 165.108 121.299 163.922 122.485C162.73 123.681 161.734 125.056 160.97 126.561C160.209 128.08 159.677 129.703 159.39 131.377C159.247 132.217 159.162 133.065 159.134 133.915C159.11 134.765 159.16 135.626 159.194 136.484C159.274 138.201 159.522 139.907 159.936 141.576C160.142 142.411 160.412 143.229 160.745 144.022C161.059 144.826 161.489 145.58 162.022 146.259Z" fill="url(#paint5_radial)"/>
<g style="mix-blend-mode:multiply">
<path d="M225.227 94.3331C216.91 77.9081 202.448 63.5812 178.153 60.042C177.487 59.9514 176.819 59.8629 176.139 59.7872C172.622 59.359 169.081 59.1701 165.539 59.2219C165.478 59.2235 165.415 59.224 165.354 59.2257C165.098 59.2307 164.85 59.2452 164.597 59.2529C142.831 60.1418 128.788 72.1245 119.779 85.0182L225.227 94.3331Z" fill="#BDCCD4"/>
</g>
<path fill-rule="evenodd" clip-rule="evenodd" d="M225.925 89.557C225.925 89.557 223.969 72.8859 168.996 68.9013C131.116 66.1557 123.83 77.567 123.83 77.567C124.679 65.971 143.97 54.7729 155.654 54.7977L193.852 58.5226C205.359 60.1964 228.698 69.1674 227.849 80.7635L225.925 89.557Z" fill="#B7895C"/>
</g>
<g filter="url(#filter1_d)">
<path d="M14.7059 328V268.582L12.5295 257.482L14.7059 250.952H64.221L69.6622 254.217L64.6562 266.188L54.8621 265.1H28.8531L29.9413 281.967H59.215V295.57H50.4003L29.9413 294.482V310.697L31.1384 321.579L29.9413 328H14.7059ZM56.4035 328L62.7153 307.432V296.876L69.68 293.612L83.8272 251.061H105.266L122.786 299.815L131.166 315.268V328H116.257L109.727 308.412H78.0595L72.2918 328H56.4035ZM84.1536 294.917H104.83L95.4713 265.426H93.186L84.1536 294.917ZM136.61 328V268.473L134.434 257.482L136.61 250.952H162.728C168.024 250.952 172.776 251.787 176.984 253.455C181.265 255.052 184.638 257.808 187.105 261.726C189.644 265.571 190.914 270.904 190.914 277.723C190.914 284.18 189.68 289.331 187.214 293.176C184.819 297.021 181.482 299.887 177.202 301.773L180.358 304.603L190.043 315.921L196.246 321.471V328H176.113L160.878 304.82H151.846V310.479L152.934 321.362L151.846 328H136.61ZM151.846 291H162.51C167.299 291 170.563 289.766 172.305 287.3C174.046 284.761 174.916 281.568 174.916 277.723C174.916 273.66 173.973 270.541 172.087 268.364C170.273 266.188 166.936 265.1 162.075 265.1H150.757L151.846 291ZM201.654 328V268.473L199.478 257.591L201.763 251.061H218.195L241.701 296.767H243.878L263.684 251.061H280.987L282.075 257.591L280.987 268.038V328H265.643L265.969 318.75V279.682H264.772L261.072 288.714L248.448 317.118H235.39L217.978 279.682H216.889V288.497L217.978 328H201.654ZM313.189 329.088C307.602 329.088 302.85 328.363 298.933 326.912C295.015 325.388 292.077 323.792 290.118 322.123V307.106C292.657 308.557 296.031 310.08 300.239 311.676C304.519 313.272 309.235 314.071 314.386 314.071C317.723 314.071 320.19 313.418 321.786 312.112C323.454 310.806 324.289 309.028 324.289 306.779C324.289 304.748 323.636 303.079 322.33 301.773C321.024 300.467 319.065 299.27 316.453 298.182C313.842 297.094 310.504 295.824 306.442 294.373C300.638 292.269 296.14 289.549 292.947 286.212C289.755 282.874 288.159 278.376 288.159 272.717C288.159 268.727 289.03 264.991 290.771 261.508C292.585 258.026 295.378 255.233 299.15 253.129C302.995 250.952 307.893 249.864 313.842 249.864C316.163 249.864 318.448 249.973 320.698 250.191C323.019 250.336 324.978 250.553 326.574 250.844L338.871 259.876L333.43 270.976L313.515 263.903C310.903 263.903 308.727 264.555 306.986 265.861C305.317 267.095 304.483 268.872 304.483 271.194C304.483 274.096 305.68 276.309 308.074 277.832C310.541 279.356 313.987 280.843 318.412 282.294C326.828 285.051 332.741 288.388 336.151 292.306C339.56 296.151 341.265 300.685 341.265 305.909C341.265 310.117 340.395 313.998 338.653 317.553C336.912 321.035 333.974 323.828 329.839 325.932C325.776 328.036 320.226 329.088 313.189 329.088Z" fill="url(#paint6_linear)"/>
</g>
<defs>
<filter id="filter0_d" x="52" y="0" width="260.001" height="315.775" filterUnits="userSpaceOnUse" color-interpolation-filters="sRGB">
<feFlood flood-opacity="0" result="BackgroundImageFix"/>
<feColorMatrix in="SourceAlpha" type="matrix" values="0 0 0 0 0 0 0 0 0 0 0 0 0 0 0 0 0 0 127 0" result="hardAlpha"/>
<feOffset/>
<feGaussianBlur stdDeviation="10"/>
<feColorMatrix type="matrix" values="0 0 0 0 0.054902 0 0 0 0 0.956863 0 0 0 0 0.933333 0 0 0 1 0"/>
<feBlend mode="normal" in2="BackgroundImageFix" result="effect1_dropShadow"/>
<feBlend mode="normal" in="SourceGraphic" in2="effect1_dropShadow" result="shape"/>
</filter>
<filter id="filter1_d" x="0.529297" y="237.864" width="352.736" height="103.224" filterUnits="userSpaceOnUse" color-interpolation-filters="sRGB">
<feFlood flood-opacity="0" result="BackgroundImageFix"/>
<feColorMatrix in="SourceAlpha" type="matrix" values="0 0 0 0 0 0 0 0 0 0 0 0 0 0 0 0 0 0 127 0" result="hardAlpha"/>
<feOffset/>
<feGaussianBlur stdDeviation="6"/>
<feColorMatrix type="matrix" values="0 0 0 0 0.054902 0 0 0 0 0.956863 0 0 0 0 0.933333 0 0 0 1 0"/>
<feBlend mode="normal" in2="BackgroundImageFix" result="effect1_dropShadow"/>
<feBlend mode="normal" in="SourceGraphic" in2="effect1_dropShadow" result="shape"/>
</filter>
<radialGradient id="paint0_radial" cx="0" cy="0" r="1" gradientUnits="userSpaceOnUse" gradientTransform="translate(122012 93616.9) scale(55886.1 44717.4)">
<stop offset="0.32445" stop-color="white"/>
<stop offset="0.80091" stop-color="#A0B6BF" stop-opacity="0.9"/>
</radialGradient>
<linearGradient id="paint1_linear" x1="223.137" y1="204.813" x2="194.899" y2="365.819" gradientUnits="userSpaceOnUse">
<stop offset="0.162585" stop-color="white"/>
<stop offset="0.704762" stop-color="#A0B6BF" stop-opacity="0.9"/>
<stop offset="0.95525" stop-color="#AFC1C9" stop-opacity="0.94247"/>
</linearGradient>
<radialGradient id="paint2_radial" cx="0" cy="0" r="1" gradientUnits="userSpaceOnUse" gradientTransform="translate(14074.5 6069) scale(634.718 699.546)">
<stop offset="0.32445" stop-color="white"/>
<stop offset="0.80091" stop-color="#A0B6BF" stop-opacity="0.9"/>
</radialGradient>
<radialGradient id="paint3_radial" cx="0" cy="0" r="1" gradientUnits="userSpaceOnUse" gradientTransform="translate(49157.5 54625.1) scale(15244.3 26310.5)">
<stop offset="0.32445" stop-color="white"/>
<stop offset="0.80091" stop-color="#A0B6BF" stop-opacity="0.9"/>
</radialGradient>
<radialGradient id="paint4_radial" cx="0" cy="0" r="1" gradientUnits="userSpaceOnUse" gradientTransform="translate(239.25 133.457) scale(94.0155 135.805)">
<stop offset="0.32445" stop-color="white"/>
<stop offset="0.80091" stop-color="#A0B6BF" stop-opacity="0.9"/>
</radialGradient>
<radialGradient id="paint5_radial" cx="0" cy="0" r="1" gradientUnits="userSpaceOnUse" gradientTransform="translate(23719.1 8565.41) scale(1108.62 1327.83)">
<stop offset="0.32445" stop-color="white"/>
<stop offset="0.80091" stop-color="#A0B6BF" stop-opacity="0.9"/>
</radialGradient>
<linearGradient id="paint6_linear" x1="349.101" y1="297.267" x2="5.83999" y2="294.19" gradientUnits="userSpaceOnUse">
<stop stop-color="#E15CBF"/>
<stop offset="0.237867" stop-color="#C65E73"/>
<stop offset="0.657367" stop-color="#2FDBE8"/>
<stop offset="1" stop-color="#DD58C7"/>
</linearGradient>
</defs>
</svg>
