<svg width="869" height="1463" viewBox="0 0 869 1463" fill="none" xmlns="http://www.w3.org/2000/svg">
<path d="M624.28 593.367C625.362 593.831 626.773 594.519 628.431 595.424C626.663 594.451 625.169 593.72 624.033 593.233C623.495 593.003 622.993 592.762 622.523 592.513C623.063 592.81 623.646 593.096 624.28 593.367Z" fill="white"/>
<path d="M664.197 705.712C668.966 684.295 674.891 657.923 654.443 628.753C631.019 595.339 614.831 597.515 611.878 588.444C609.537 581.256 613.432 576.049 616.46 574.426C616.403 574.368 616.351 574.308 616.289 574.25C614.529 572.594 611.946 574.103 611.946 574.103C611.946 574.103 599.752 582.92 604.53 596.893C609.308 610.866 628.284 615.094 627.679 636.815C627.171 655.055 607.321 656.136 590.668 652.044L596.36 766.171C599.088 765.297 601.925 764.347 604.901 763.311C639.086 751.411 658.96 729.233 664.197 705.712Z" fill="white"/>
<path d="M679.72 691.678C672.783 737.769 644.172 772.392 597.15 782.011L597.159 782.191C644.322 772.64 673.019 737.981 679.967 691.812C688.256 636.733 645.311 604.639 628.431 595.424C645.481 604.818 687.968 636.87 679.72 691.678Z" fill="url(#paint0_radial)"/>
<path d="M617.516 577.936C617.516 577.936 612.425 587.169 622.523 592.513C612.757 587.151 617.763 578.07 617.763 578.07C617.894 577.402 617.85 576.711 617.635 576.065C617.42 575.419 617.042 574.84 616.536 574.384C616.511 574.397 616.485 574.413 616.46 574.426C616.907 574.882 617.237 575.439 617.421 576.051C617.605 576.662 617.637 577.309 617.516 577.936Z" fill="url(#paint1_radial)"/>
<path d="M679.72 691.678C687.968 636.87 645.481 604.818 628.431 595.424C626.773 594.519 625.362 593.831 624.28 593.367C623.646 593.096 623.063 592.81 622.523 592.513C612.425 587.169 617.516 577.936 617.516 577.936C617.637 577.309 617.605 576.662 617.421 576.051C617.237 575.439 616.907 574.882 616.459 574.426C613.432 576.049 609.537 581.256 611.878 588.444C614.831 597.515 631.019 595.339 654.442 628.752C674.891 657.923 668.966 684.295 664.197 705.712C658.959 729.233 639.086 751.411 604.901 763.311C601.925 764.347 599.088 765.297 596.36 766.171L597.15 782.011C644.172 772.392 672.783 737.769 679.72 691.678Z" fill="white"/>
<path d="M679.72 691.678C687.968 636.87 645.481 604.818 628.431 595.424C626.773 594.519 625.362 593.831 624.28 593.367C623.646 593.096 623.063 592.81 622.523 592.513C612.425 587.169 617.516 577.936 617.516 577.936C617.637 577.309 617.605 576.662 617.421 576.051C617.237 575.439 616.907 574.882 616.459 574.426C613.432 576.049 609.537 581.256 611.878 588.444C614.831 597.515 631.019 595.339 654.442 628.752C674.891 657.923 668.966 684.295 664.197 705.712C658.959 729.233 639.086 751.411 604.901 763.311C601.925 764.347 599.088 765.297 596.36 766.171L597.15 782.011C644.172 772.392 672.783 737.769 679.72 691.678Z" fill="url(#paint2_radial)"/>
<path d="M420.377 1041.37C503.611 1041.37 571.085 911.098 571.085 750.402C571.085 589.707 503.611 459.438 420.377 459.438C337.143 459.438 269.668 589.707 269.668 750.402C269.668 911.098 337.143 1041.37 420.377 1041.37Z" fill="#030360"/>
<path d="M434.79 992.295C505.254 992.295 562.376 882.012 562.376 745.972C562.376 609.931 505.254 499.648 434.79 499.648C364.326 499.648 307.204 609.931 307.204 745.972C307.204 882.012 364.326 992.295 434.79 992.295Z" fill="#00004C"/>
<path d="M451.589 965.72C510.1 965.72 557.532 868.533 557.532 748.646C557.532 628.759 510.1 531.571 451.589 531.571C393.078 531.571 345.646 628.759 345.646 748.646C345.646 868.533 393.078 965.72 451.589 965.72Z" fill="url(#paint3_radial)"/>
<path d="M428.634 401.071C327.661 401.071 240.451 558.46 240.451 749.697C240.451 940.934 327.661 1093.6 428.634 1093.6C529.607 1093.6 620.497 938.573 620.497 747.336C620.497 556.099 529.607 401.071 428.634 401.071ZM418.98 1025.27C346.064 1025.27 283.085 903.012 283.085 749.865C283.085 596.718 346.064 470.678 418.98 470.678C491.897 470.678 557.532 594.828 557.532 747.975C557.532 901.122 491.897 1025.27 418.98 1025.27Z" fill="url(#paint4_radial)"/>
<g style="mix-blend-mode:screen">
<path d="M415.272 1091.85C420.534 1093.01 425.906 1093.59 431.294 1093.6C518.323 1093.6 593.491 936.213 593.491 744.976C593.491 553.739 518.323 401.071 431.294 401.071C425.951 401.078 420.625 401.658 415.405 402.798C483.838 401.071 585.57 547.386 583.226 760.426C580.967 965.72 495.378 1074.17 415.272 1091.85Z" fill="#0F0FD3"/>
</g>
<g style="mix-blend-mode:multiply" opacity="0.52">
<path d="M428.634 401.071C424.187 401.074 419.746 401.38 415.342 401.988C471.132 388.286 597.344 511.109 593.789 747.336C590.431 970.471 510.769 1079.8 415.272 1092.69C419.701 1093.29 424.165 1093.6 428.634 1093.6C529.607 1093.6 620.497 938.573 620.497 747.336C620.497 556.099 529.607 401.071 428.634 401.071Z" fill="#00004C"/>
</g>
<g style="mix-blend-mode:lighten">
<path d="M274.166 687.26C289.92 557.362 353.39 452.058 415.93 452.058C428.977 452.058 440.948 456.656 451.589 465.089C437.859 445.153 420.392 433.691 400.244 433.691C340.539 433.691 279.948 534.22 264.909 658.227C257.43 719.889 262.627 775.74 277.079 816.319C269.841 779.265 268.386 734.923 274.166 687.26Z" fill="#3939FF"/>
</g>
<g style="mix-blend-mode:lighten">
<path d="M556.398 835.655C536.819 956.857 471.471 1041.46 410.44 1035.48C397.708 1034.24 386.174 1028.75 376.064 1019.77C388.817 1039.91 405.491 1052.41 425.153 1054.33C483.416 1060.04 545.801 979.671 564.492 863.965C573.787 806.431 573.802 728.846 561.013 689.132C566.877 724.826 563.583 791.182 556.398 835.655Z" fill="#2E2EFF"/>
</g>
<g opacity="0.5" filter="url(#filter0_f)">
<path d="M818.924 731.012C818.924 1198.31 582.046 1485.04 352.466 1395.79C171.48 1325.44 50.6558 1033.36 50.6558 731.012C50.6558 428.661 171.48 136.588 352.466 66.2315C582.046 -23.016 818.924 263.717 818.924 731.012Z" fill="url(#paint5_radial)" style="mix-blend-mode:screen"/>
<path d="M818.924 731.012C818.924 1198.31 582.046 1485.04 352.466 1395.79C171.48 1325.44 50.6558 1033.36 50.6558 731.012C50.6558 428.661 171.48 136.588 352.466 66.2315C582.046 -23.016 818.924 263.717 818.924 731.012Z" fill="url(#paint6_radial)" style="mix-blend-mode:screen"/>
</g>
<path style="mix-blend-mode:multiply" d="M520.468 739.795C523.917 849.435 486.944 918.516 451.589 918.516C424.078 918.516 367.032 893.924 359.321 745.971C351.98 605.125 387.761 570.658 415.272 570.658C442.783 570.658 516.397 610.374 520.468 739.795Z" fill="url(#paint7_radial)"/>
<path style="mix-blend-mode:multiply" d="M530.601 728.625C534.265 845.117 494.981 918.516 457.416 918.516C428.186 918.516 367.575 892.387 359.381 735.188C351.581 585.538 389.599 548.917 418.83 548.917C448.06 548.917 526.275 591.116 530.601 728.625Z" fill="url(#paint8_radial)"/>
<path d="M431.719 407.558C441.259 409.917 473.669 418.602 476.105 431.664C479.066 447.546 450.439 462.178 425.94 462.915C415.869 463.355 405.778 462.92 395.781 461.616C403.868 440.78 411.371 419.89 415.524 402.099C421.208 405.634 428.45 406.75 431.719 407.558Z" fill="url(#paint9_radial)"/>
<path d="M95.1583 372.622C89.798 383.685 84.6183 396.042 78.4827 411.182C83.0218 397.911 88.5975 385.018 95.1583 372.622Z" fill="white"/>
<path d="M352.373 534.946C278.296 780.728 416.44 733.504 416.44 733.504L443.976 840.932C443.976 840.932 201.497 962.332 78.4827 722.311C-1.44314 566.362 86.8205 389.843 86.8205 389.843C86.8205 389.843 392.189 402.839 352.373 534.946Z" fill="white"/>
<path d="M345.31 208.767L347.366 207.043C348.7 205.924 350.424 205.381 352.158 205.533C353.893 205.685 355.496 206.52 356.615 207.854L366.861 220.071C367.98 221.405 368.523 223.129 368.371 224.864C368.219 226.599 367.384 228.202 366.05 229.321L363.994 231.045C363.333 231.599 362.57 232.018 361.748 232.277C360.926 232.536 360.061 232.63 359.202 232.555C358.343 232.48 357.508 232.236 356.744 231.838C355.979 231.44 355.301 230.895 354.747 230.234L344.499 218.016C343.38 216.682 342.837 214.958 342.989 213.223C343.141 211.489 343.976 209.886 345.31 208.767Z" fill="white"/>
<path d="M261.428 278.93L263.484 277.205C264.818 276.086 266.542 275.543 268.277 275.695C270.011 275.847 271.614 276.682 272.733 278.016L282.98 290.234C284.099 291.568 284.642 293.292 284.49 295.026C284.338 296.76 283.503 298.363 282.169 299.482L280.113 301.207C278.779 302.326 277.055 302.869 275.321 302.716C273.586 302.564 271.983 301.729 270.865 300.396L260.617 288.177C259.498 286.843 258.955 285.12 259.107 283.385C259.259 281.651 260.094 280.048 261.428 278.93Z" fill="white"/>
<path d="M327.543 477.107C333.364 462.427 319.819 448.607 302.353 436.08C288.173 425.91 268.025 408.802 255.302 387.804C238.515 360.096 199.913 362.81 183.407 383.437C166.901 404.064 175.099 429.475 198.088 449.585C224.702 472.866 249.795 479.862 280.517 488.825C300.95 494.785 321.723 491.786 327.543 477.107Z" fill="white"/>
<path d="M100.274 362.925C98.5867 366.094 96.8764 369.307 95.1584 372.622C96.6977 369.444 98.251 366.368 99.8472 363.37C107.474 349.047 114.647 335.491 122.814 320.972L122.656 321.536C117.838 329.863 115.074 335.045 115.074 335.045C115.074 335.045 107.901 348.602 100.274 362.925Z" fill="url(#paint10_radial)"/>
<path d="M387.932 195.694C303.068 145.807 236.867 185.605 199.204 219.066C167.733 247.027 136.588 297.459 122.656 321.537C117.838 329.863 115.074 335.045 115.074 335.045C115.074 335.045 107.901 348.602 100.274 362.925C98.5868 366.094 96.8763 369.307 95.1586 372.622C89.7982 383.685 84.6186 396.042 78.4828 411.182C78.0951 412.323 77.7084 413.473 77.3251 414.654C75.182 421.258 73.265 427.793 71.5741 434.258C73.2665 427.794 75.1835 421.259 77.3251 414.654C77.7084 413.473 78.0951 412.323 78.4828 411.182C77.9613 412.467 77.4332 413.773 76.8983 415.099C67.522 437.88 61.3317 461.846 58.5023 486.318C59.6888 487.673 60.9364 489.044 62.2162 490.422C62.5126 485.997 62.9227 481.529 63.4467 477.017C62.9237 481.528 62.5135 485.996 62.2162 490.422C72.8666 501.771 84.6965 511.953 97.5052 520.794C121.955 537.866 154.908 554.489 199.292 567.496C241.701 579.889 286.232 583.276 330.027 577.441C335.279 562.226 342.814 547.897 352.372 534.946C363.102 520.37 376.346 503.662 389.102 486.762C402.567 468.923 415.485 450.873 424.334 434.889C424.956 433.766 425.563 432.651 426.142 431.549C442.808 399.911 499.368 261.2 387.932 195.694Z" fill="white"/>
<path d="M374.224 325.33L380.324 310.596C380.989 308.987 382.267 307.709 383.875 307.042C385.484 306.376 387.291 306.375 388.899 307.041L391.379 308.068C392.988 308.734 394.266 310.012 394.933 311.62C395.6 313.228 395.6 315.036 394.934 316.645L388.835 331.378C388.169 332.987 386.891 334.265 385.283 334.932C383.674 335.598 381.867 335.599 380.258 334.933L377.779 333.906C376.982 333.577 376.259 333.093 375.649 332.484C375.039 331.874 374.555 331.151 374.225 330.354C373.895 329.558 373.725 328.704 373.725 327.842C373.725 326.98 373.894 326.126 374.224 325.33Z" fill="#1D1D1B"/>
<path d="M273.23 283.395L279.326 268.66C279.992 267.051 281.269 265.773 282.878 265.106C284.486 264.439 286.293 264.438 287.902 265.104L290.382 266.13C291.991 266.795 293.269 268.073 293.936 269.681C294.603 271.289 294.604 273.096 293.938 274.705L287.841 289.441C287.175 291.049 285.898 292.328 284.29 292.995C282.682 293.662 280.875 293.662 279.266 292.997L276.786 291.97C275.177 291.305 273.898 290.027 273.231 288.419C272.565 286.811 272.564 285.003 273.23 283.395Z" fill="#1D1D1B"/>
<path d="M316.747 312.26C312.476 320.264 314.93 329.911 322.229 333.806C329.527 337.701 338.907 334.369 343.178 326.365" stroke="#1D1D1B" stroke-width="3" stroke-miterlimit="10" stroke-linecap="round"/>
<path d="M412.403 429.597C459.145 382.046 454.474 316.258 452.523 285.021C466.686 346.2 437.112 410.725 426.143 431.549C425.563 432.651 424.956 433.766 424.334 434.89C415.485 450.873 402.126 468.598 389.102 486.762C339.744 555.599 344.034 568.963 338.991 584.211C335.486 552.587 343.26 499.938 412.403 429.597Z" fill="url(#paint11_radial)"/>
<path d="M422.861 846.547C450.765 846.547 473.386 821.14 473.386 789.799C473.386 758.457 450.765 733.05 422.861 733.05C394.957 733.05 372.336 758.457 372.336 789.799C372.336 821.14 394.957 846.547 422.861 846.547Z" fill="white"/>
<path d="M324.309 857.246C229.487 857.246 134.886 824.737 86.8206 678.219C49.8192 565.426 102.096 438.064 128.124 385.405C135.745 386.604 143.551 385.436 150.487 382.059C174.448 370.932 186.265 334.084 163.345 311.188C145.975 293.836 134.15 270.197 127.644 254.005C119.632 234.061 109.429 217.618 93.7864 219.78C78.1444 221.942 70.2904 241.406 71.22 262.67C72.6185 294.642 73.4451 320.679 89.7283 352.067C92.2527 356.985 95.2343 361.654 98.6336 366.014C97.4808 368.185 96.3231 370.375 95.1585 372.621C92.5501 378.005 89.9842 383.698 87.3304 389.866C86.9949 389.85 86.8206 389.842 86.8206 389.842C86.8206 389.842 -1.44302 566.362 78.4827 722.311C187.882 935.768 391.762 863.379 435.552 844.74C444.748 841.977 452.944 836.604 459.145 829.272C432.7 841.262 385.896 857.246 324.309 857.246Z" fill="url(#paint12_radial)"/>
<defs>
<filter id="filter0_f" x="0.655823" y="0" width="868.268" height="1462.02" filterUnits="userSpaceOnUse" color-interpolation-filters="sRGB">
<feFlood flood-opacity="0" result="BackgroundImageFix"/>
<feBlend mode="normal" in="SourceGraphic" in2="BackgroundImageFix" result="shape"/>
<feGaussianBlur stdDeviation="25" result="effect1_foregroundBlur"/>
</filter>
<radialGradient id="paint0_radial" cx="0" cy="0" r="1" gradientUnits="userSpaceOnUse" gradientTransform="translate(556.524 688.545) rotate(100.055) scale(145.805)">
<stop offset="0.63788" stop-color="white"/>
<stop offset="0.80085" stop-color="#A0B6BF" stop-opacity="0.9"/>
</radialGradient>
<radialGradient id="paint1_radial" cx="0" cy="0" r="1" gradientUnits="userSpaceOnUse" gradientTransform="translate(556.525 688.545) rotate(100.055) scale(145.805 145.805)">
<stop offset="0.63788" stop-color="white"/>
<stop offset="0.80085" stop-color="#A0B6BF" stop-opacity="0.9"/>
</radialGradient>
<radialGradient id="paint2_radial" cx="0" cy="0" r="1" gradientUnits="userSpaceOnUse" gradientTransform="translate(556.524 688.545) rotate(100.055) scale(145.805)">
<stop offset="0.63788" stop-color="white"/>
<stop offset="0.80085" stop-color="#A0B6BF" stop-opacity="0.9"/>
</radialGradient>
<radialGradient id="paint3_radial" cx="0" cy="0" r="1" gradientUnits="userSpaceOnUse" gradientTransform="translate(451.589 748.643) scale(132.946 232.122)">
<stop stop-color="#121212"/>
<stop offset="1" stop-color="#00004C"/>
</radialGradient>
<radialGradient id="paint4_radial" cx="0" cy="0" r="1" gradientUnits="userSpaceOnUse" gradientTransform="translate(335.886 410.309) scale(559.19)">
<stop stop-color="#2525EF"/>
<stop offset="0.13367" stop-color="#2020E9"/>
<stop offset="0.56525" stop-color="#1313D8"/>
<stop offset="0.73753" stop-color="#0B0BD5"/>
<stop offset="1" stop-color="#0303D3"/>
</radialGradient>
<radialGradient id="paint5_radial" cx="0" cy="0" r="1" gradientUnits="userSpaceOnUse" gradientTransform="translate(434.792 731.011) scale(484.922 784.691)">
<stop stop-color="#0F0F1C"/>
<stop offset="0.32984" stop-color="#2525EF"/>
<stop offset="0.35621" stop-color="#2323ED" stop-opacity="0.90551"/>
<stop offset="0.42136" stop-color="#2020E8" stop-opacity="0.69536"/>
<stop offset="0.48973" stop-color="#1C1CE4" stop-opacity="0.50905"/>
<stop offset="0.56008" stop-color="#1919E0" stop-opacity="0.35198"/>
<stop offset="0.63286" stop-color="#1717DD" stop-opacity="0.22407"/>
<stop offset="0.70894" stop-color="#1515DB" stop-opacity="0.12505"/>
<stop offset="0.7897" stop-color="#1414D9" stop-opacity="0.05481"/>
<stop offset="0.87832" stop-color="#1313D8" stop-opacity="0.01321"/>
<stop offset="0.98996" stop-color="#1313D8" stop-opacity="0"/>
</radialGradient>
<radialGradient id="paint6_radial" cx="0" cy="0" r="1" gradientUnits="userSpaceOnUse" gradientTransform="translate(435 731) rotate(180) scale(420.5 680.445)">
<stop stop-color="#0F0F1C"/>
<stop offset="0.32984" stop-color="#2525EF"/>
<stop offset="0.35621" stop-color="#2323ED" stop-opacity="0.90551"/>
<stop offset="0.42136" stop-color="#2020E8" stop-opacity="0.69536"/>
<stop offset="0.48973" stop-color="#1C1CE4" stop-opacity="0.50905"/>
<stop offset="0.56008" stop-color="#1919E0" stop-opacity="0.35198"/>
<stop offset="0.63286" stop-color="#1717DD" stop-opacity="0.22407"/>
<stop offset="0.70894" stop-color="#1515DB" stop-opacity="0.12505"/>
<stop offset="0.7897" stop-color="#1414D9" stop-opacity="0.05481"/>
<stop offset="0.87832" stop-color="#1313D8" stop-opacity="0.01321"/>
<stop offset="0.98996" stop-color="#1313D8" stop-opacity="0"/>
</radialGradient>
<radialGradient id="paint7_radial" cx="0" cy="0" r="1" gradientUnits="userSpaceOnUse" gradientTransform="translate(431.885 923.316) scale(497.381)">
<stop offset="0.07469" stop-color="#1D1D1B"/>
<stop offset="0.20155" stop-color="#0F0F3F"/>
<stop offset="0.33706" stop-color="#04045E"/>
<stop offset="0.39802" stop-color="#04045F" stop-opacity="0.70515"/>
<stop offset="0.46888" stop-color="#03035F" stop-opacity="0.44799"/>
<stop offset="0.54921" stop-color="#030360" stop-opacity="0.24734"/>
<stop offset="0.6431" stop-color="#030360" stop-opacity="0.10615"/>
<stop offset="0.76322" stop-color="#030360" stop-opacity="0.02401"/>
<stop offset="1" stop-color="#030360" stop-opacity="0"/>
</radialGradient>
<radialGradient id="paint8_radial" cx="0" cy="0" r="1" gradientUnits="userSpaceOnUse" gradientTransform="translate(67884.8 323437) scale(91155.1 195321)">
<stop offset="0.07469" stop-color="#1D1D1B"/>
<stop offset="0.20155" stop-color="#0F0F3F"/>
<stop offset="0.33706" stop-color="#04045E"/>
<stop offset="0.39802" stop-color="#04045F" stop-opacity="0.70515"/>
<stop offset="0.46888" stop-color="#03035F" stop-opacity="0.44799"/>
<stop offset="0.54921" stop-color="#030360" stop-opacity="0.24734"/>
<stop offset="0.6431" stop-color="#030360" stop-opacity="0.10615"/>
<stop offset="0.76322" stop-color="#030360" stop-opacity="0.02401"/>
<stop offset="1" stop-color="#030360" stop-opacity="0"/>
</radialGradient>
<radialGradient id="paint9_radial" cx="0" cy="0" r="1" gradientUnits="userSpaceOnUse" gradientTransform="translate(469.464 384.357) rotate(86.6004) scale(105.086)">
<stop offset="0.47759" stop-color="white"/>
<stop offset="0.75721" stop-color="#A0B6BF" stop-opacity="0.9"/>
</radialGradient>
<radialGradient id="paint10_radial" cx="0" cy="0" r="1" gradientUnits="userSpaceOnUse" gradientTransform="translate(59835.7 28998.5) rotate(-154.655) scale(8849.82 16527.8)">
<stop offset="0.63788" stop-color="white"/>
<stop offset="0.80085" stop-color="#A0B6BF" stop-opacity="0.9"/>
</radialGradient>
<radialGradient id="paint11_radial" cx="0" cy="0" r="1" gradientUnits="userSpaceOnUse" gradientTransform="translate(560.356 452.07) scale(297.49)">
<stop offset="0.59843" stop-color="white"/>
<stop offset="0.86143" stop-color="#A0B6BF" stop-opacity="0.9"/>
</radialGradient>
<radialGradient id="paint12_radial" cx="0" cy="0" r="1" gradientUnits="userSpaceOnUse" gradientTransform="translate(453.062 275.882) scale(554.631)">
<stop offset="0.6029" stop-color="white"/>
<stop offset="0.75721" stop-color="#A0B6BF" stop-opacity="0.9"/>
</radialGradient>
</defs>
</svg>
