<svg width="769" height="1363" viewBox="0 0 769 1363" fill="none" xmlns="http://www.w3.org/2000/svg">
<path d="M594.681 433.997C596.516 435.685 598.851 438.054 601.526 441.03C598.68 437.839 596.209 435.328 594.282 433.555C593.369 432.715 592.537 431.88 591.772 431.052C592.643 432.025 593.605 433.007 594.681 433.997Z" fill="white"/>
<path d="M595.313 686.577C619.925 647.144 650.337 598.625 630.025 525.94C606.758 442.682 572.882 435.629 573.369 415.425C573.755 399.414 585.204 391.755 592.396 390.644C592.325 390.487 592.262 390.331 592.18 390.172C589.829 385.622 583.606 386.819 583.606 386.819C583.606 386.819 553.031 395.848 552.737 427.131C552.443 458.414 587.38 480.226 570.873 523.199C557.012 559.286 516.59 547.465 486.198 527.562L417.192 759.598C423.258 759.773 429.596 759.874 436.271 759.9C512.954 760.199 568.282 729.884 595.313 686.577Z" fill="white"/>
<path d="M636.212 669.469C589.891 756.676 508.341 805.702 407.614 791.804L407.505 792.17C508.465 806.302 590.212 757.264 636.611 669.91C691.965 565.699 628.763 471.329 601.526 441.03C628.978 471.807 691.293 565.77 636.212 669.469Z" fill="url(#paint0_radial)"/>
<path d="M592.034 398.4C592.034 398.4 575.359 413.263 591.772 431.052C576.036 413.46 592.433 398.841 592.433 398.841C593.166 397.599 593.565 396.189 593.59 394.747C593.616 393.305 593.267 391.881 592.579 390.614C592.519 390.622 592.456 390.635 592.396 390.644C592.969 391.869 593.235 393.215 593.172 394.566C593.109 395.918 592.719 397.233 592.034 398.4Z" fill="url(#paint1_radial)"/>
<path d="M636.212 669.469C691.293 565.771 628.978 471.807 601.526 441.03C598.85 438.054 596.516 435.685 594.681 433.997C593.605 433.007 592.642 432.025 591.772 431.052C575.359 413.263 592.034 398.4 592.034 398.4C592.719 397.233 593.109 395.918 593.172 394.566C593.235 393.215 592.969 391.869 592.396 390.644C585.204 391.755 573.755 399.414 573.369 415.425C572.882 435.629 606.758 442.682 630.025 525.94C650.337 598.624 619.925 647.144 595.313 686.577C568.282 729.884 512.954 760.199 436.271 759.9C429.596 759.874 423.258 759.773 417.192 759.598L407.614 791.804C508.341 805.702 589.891 756.676 636.212 669.469Z" fill="white"/>
<path d="M636.212 669.469C691.293 565.771 628.978 471.807 601.526 441.03C598.85 438.054 596.516 435.685 594.681 433.997C593.605 433.007 592.642 432.025 591.772 431.052C575.359 413.263 592.034 398.4 592.034 398.4C592.719 397.233 593.109 395.918 593.172 394.566C593.235 393.215 592.969 391.869 592.396 390.644C585.204 391.755 573.755 399.414 573.369 415.425C572.882 435.629 606.758 442.682 630.025 525.94C650.337 598.624 619.925 647.144 595.313 686.577C568.282 729.884 512.954 760.199 436.271 759.9C429.596 759.874 423.258 759.773 417.192 759.598L407.614 791.804C508.341 805.702 589.891 756.676 636.212 669.469Z" fill="url(#paint2_radial)"/>
<path d="M369.721 991.367C452.955 991.367 520.429 861.098 520.429 700.402C520.429 539.707 452.955 409.438 369.721 409.438C286.487 409.438 219.013 539.707 219.013 700.402C219.013 861.098 286.487 991.367 369.721 991.367Z" fill="#030360"/>
<path d="M384.134 942.295C454.598 942.295 511.72 832.012 511.72 695.972C511.72 559.931 454.598 449.648 384.134 449.648C313.67 449.648 256.548 559.931 256.548 695.972C256.548 832.012 313.67 942.295 384.134 942.295Z" fill="#00004C"/>
<path d="M400.933 915.72C459.444 915.72 506.876 818.533 506.876 698.646C506.876 578.759 459.444 481.571 400.933 481.571C342.422 481.571 294.99 578.759 294.99 698.646C294.99 818.533 342.422 915.72 400.933 915.72Z" fill="url(#paint3_radial)"/>
<path d="M377.978 351.071C277.005 351.071 189.795 508.46 189.795 699.697C189.795 890.934 277.005 1043.6 377.978 1043.6C478.951 1043.6 569.841 888.573 569.841 697.336C569.841 506.099 478.951 351.071 377.978 351.071ZM368.325 975.272C295.408 975.272 232.43 853.012 232.43 699.865C232.43 546.718 295.408 420.678 368.325 420.678C441.241 420.678 506.876 544.828 506.876 697.975C506.876 851.122 441.241 975.272 368.325 975.272Z" fill="url(#paint4_radial)"/>
<g style="mix-blend-mode:screen">
<path d="M364.616 1041.85C369.878 1043.01 375.25 1043.59 380.638 1043.6C467.668 1043.6 542.836 886.213 542.836 694.976C542.836 503.739 467.668 351.071 380.638 351.071C375.296 351.078 369.969 351.658 364.75 352.798C433.182 351.071 534.915 497.386 532.57 710.426C530.312 915.72 444.723 1024.17 364.616 1041.85Z" fill="#0F0FD3"/>
</g>
<g style="mix-blend-mode:multiply" opacity="0.52">
<path d="M377.978 351.071C373.532 351.074 369.091 351.38 364.686 351.988C420.477 338.286 546.688 461.109 543.133 697.336C539.776 920.471 460.113 1029.8 364.616 1042.69C369.045 1043.29 373.509 1043.6 377.978 1043.6C478.951 1043.6 569.841 888.573 569.841 697.336C569.841 506.099 478.951 351.071 377.978 351.071Z" fill="#00004C"/>
</g>
<g style="mix-blend-mode:lighten">
<path d="M223.51 637.26C239.264 507.361 302.734 402.058 365.274 402.058C378.321 402.058 390.293 406.656 400.933 415.089C387.203 395.153 369.737 383.691 349.588 383.691C289.884 383.691 229.292 484.219 214.253 608.227C206.775 669.889 211.972 725.74 226.424 766.318C219.185 729.265 217.73 684.923 223.51 637.26Z" fill="#3939FF"/>
</g>
<g style="mix-blend-mode:lighten">
<path d="M505.742 785.655C486.163 906.857 420.815 991.459 359.784 985.483C347.052 984.237 335.518 978.75 325.408 969.767C338.161 989.911 354.835 1002.41 374.497 1004.33C432.761 1010.04 495.145 929.671 513.836 813.965C523.131 756.43 523.146 678.846 510.357 639.132C516.221 674.826 512.927 741.182 505.742 785.655Z" fill="#2E2EFF"/>
</g>
<g style="mix-blend-mode:overlay" opacity="0.5">
<path d="M768.268 681.012C768.268 1148.31 531.391 1435.04 301.81 1345.79C120.824 1275.44 0 983.363 0 681.012C0 378.661 120.824 86.5881 301.81 16.2315C531.391 -73.016 768.268 213.717 768.268 681.012Z" fill="url(#paint5_radial)" style="mix-blend-mode:screen"/>
<path d="M768.268 681.012C768.268 1148.31 531.391 1435.04 301.81 1345.79C120.824 1275.44 0 983.363 0 681.012C0 378.661 120.824 86.5881 301.81 16.2315C531.391 -73.016 768.268 213.717 768.268 681.012Z" fill="url(#paint6_radial)" style="mix-blend-mode:screen"/>
<path d="M768.268 681.012C768.268 1148.31 531.391 1435.04 301.81 1345.79C120.824 1275.44 0 983.363 0 681.012C0 378.661 120.824 86.5881 301.81 16.2315C531.391 -73.016 768.268 213.717 768.268 681.012Z" fill="url(#paint7_radial)" style="mix-blend-mode:screen"/>
<path d="M768.268 681.012C768.268 1148.31 531.391 1435.04 301.81 1345.79C120.824 1275.44 0 983.363 0 681.012C0 378.661 120.824 86.5881 301.81 16.2315C531.391 -73.016 768.268 213.717 768.268 681.012Z" fill="url(#paint8_radial)" style="mix-blend-mode:screen"/>
</g>
<path style="mix-blend-mode:multiply" d="M469.812 689.795C473.262 799.435 436.288 868.516 400.933 868.516C373.423 868.516 316.377 843.924 308.665 695.972C301.324 555.125 337.106 520.658 364.616 520.658C392.127 520.658 465.741 560.374 469.812 689.795Z" fill="url(#paint9_radial)"/>
<path style="mix-blend-mode:multiply" d="M479.945 678.625C483.609 795.117 444.325 868.516 406.761 868.516C377.531 868.516 316.919 842.387 308.726 685.188C300.926 535.538 338.944 498.917 368.174 498.917C397.404 498.917 475.619 541.116 479.945 678.625Z" fill="url(#paint10_radial)"/>
<path d="M244.721 918.562C247.642 927.945 258.234 959.783 271.417 961.44C287.447 963.455 300.355 934.01 299.638 909.511C299.48 899.431 298.448 889.383 296.553 879.482C276.233 888.79 255.825 897.519 238.311 902.719C242.177 908.183 243.721 915.347 244.721 918.562Z" fill="url(#paint11_radial)"/>
<path d="M248.38 567.857C260.338 565.004 273.521 562.607 289.626 559.875C275.69 561.45 261.898 564.119 248.38 567.857Z" fill="white"/>
<path d="M416.263 711.508C413.117 665.363 403.979 629.604 392.572 602.052C391.727 601.796 390.899 601.528 390.047 601.278C309.786 577.749 274.284 579.114 192.573 583.71C166.06 592.131 110.105 611.687 76.0237 636.399C35.2386 665.974 -17.0773 722.172 16.1419 814.838C57.9432 942.916 200.176 913.228 234.66 903.766C235.861 903.437 237.08 903.084 238.311 902.719C255.825 897.519 276.233 888.79 296.553 879.482C315.803 870.664 334.971 861.329 351.515 853.989C366.221 847.443 381.836 843.17 397.825 841.317C412.953 799.806 419.233 755.59 416.263 711.508Z" fill="white"/>
<path d="M32.3805 778.497L34.5076 776.861C35.8875 775.799 37.6327 775.329 39.3592 775.553C41.0857 775.778 42.6522 776.68 43.714 778.06L53.4391 790.698C54.5009 792.077 54.971 793.822 54.7461 795.549C54.5212 797.275 53.6198 798.842 52.2401 799.903L50.1119 801.541C48.7324 802.602 46.9875 803.073 45.2613 802.848C43.5351 802.623 41.9689 801.721 40.9073 800.342L31.1814 787.703C30.1197 786.323 29.6496 784.578 29.8744 782.852C30.0993 781.125 31.0008 779.559 32.3805 778.497L32.3805 778.497Z" fill="white"/>
<path d="M118.958 711.69L121.085 710.053C122.465 708.992 124.21 708.521 125.936 708.746C127.663 708.971 129.229 709.873 130.291 711.252L140.016 723.89C140.542 724.574 140.928 725.354 141.152 726.186C141.376 727.018 141.434 727.887 141.323 728.742C141.212 729.597 140.933 730.421 140.503 731.168C140.073 731.915 139.5 732.57 138.817 733.096L136.69 734.733C135.31 735.795 133.565 736.265 131.839 736.04C130.112 735.815 128.546 734.914 127.484 733.534L117.759 720.896C116.697 719.517 116.227 717.771 116.452 716.045C116.677 714.318 117.579 712.752 118.958 711.69L118.958 711.69Z" fill="white"/>
<path d="M300.379 817.288C284.79 819.812 274.21 803.608 265.738 783.855C258.86 767.818 246.492 744.459 228.725 727.514C205.282 705.154 216.243 668.042 239.94 656.364C263.638 644.687 286.688 658.164 301.376 684.943C318.381 715.946 319.81 741.957 321.947 773.888C323.369 795.125 315.967 814.765 300.379 817.288Z" fill="white"/>
<path d="M370.511 561.051C369.441 559.505 368.37 557.992 367.302 556.541C342.795 554.035 318.059 554.92 293.793 559.171C292.382 559.408 290.993 559.643 289.626 559.875C290.824 559.742 292.031 559.612 293.266 559.492C320.911 556.808 346.691 557.449 370.511 561.051Z" fill="url(#paint12_radial)"/>
<path d="M237.809 570.765C241.267 569.799 244.774 568.821 248.38 567.857C244.946 568.676 241.607 569.53 238.336 570.444C222.707 574.808 207.924 578.894 191.988 583.743L192.573 583.71C201.742 580.798 207.397 579.214 207.397 579.214C207.397 579.214 222.18 575.128 237.809 570.765Z" fill="url(#paint13_radial)"/>
<path d="M390.047 601.278C390.899 601.528 391.727 601.796 392.572 602.052C386.696 587.64 379.3 573.896 370.511 561.051C346.691 557.449 320.911 556.808 293.266 559.492C292.031 559.612 290.824 559.742 289.626 559.875C273.521 562.607 260.338 565.004 248.38 567.857C244.774 568.821 241.267 569.799 237.809 570.765C222.18 575.128 207.397 579.214 207.397 579.214C207.397 579.214 201.741 580.798 192.573 583.71C274.283 579.114 309.786 577.749 390.047 601.278Z" fill="white"/>
<path d="M390.047 601.278C390.899 601.528 391.727 601.796 392.572 602.052C386.696 587.64 379.3 573.896 370.511 561.051C346.691 557.449 320.911 556.808 293.266 559.492C292.031 559.612 290.824 559.742 289.626 559.875C273.521 562.607 260.338 565.004 248.38 567.857C244.774 568.821 241.267 569.799 237.809 570.765C222.18 575.128 207.397 579.214 207.397 579.214C207.397 579.214 201.741 580.798 192.573 583.71C274.283 579.114 309.786 577.749 390.047 601.278Z" fill="white"/>
<path d="M32.3784 778.499L34.505 776.862C35.8844 775.8 37.6293 775.329 39.3557 775.554C41.0821 775.778 42.6487 776.679 43.7108 778.059L53.4391 790.694C54.5013 792.074 54.9719 793.819 54.7474 795.546C54.523 797.272 53.6219 798.839 52.2423 799.901L50.1163 801.538C48.7366 802.6 46.9915 803.071 45.2649 802.846C43.5382 802.622 41.9715 801.721 40.9093 800.341L31.1816 787.706C30.1194 786.327 29.6488 784.582 29.8732 782.855C30.0977 781.128 30.9988 779.562 32.3784 778.499Z" fill="#1D1D1B"/>
<path d="M118.957 711.691L121.084 710.054C122.464 708.992 124.209 708.522 125.935 708.747C127.662 708.971 129.229 709.873 130.29 711.253L140.016 723.889C141.078 725.269 141.548 727.014 141.323 728.741C141.099 730.467 140.197 732.034 138.817 733.096L136.69 734.733C135.311 735.795 133.566 736.265 131.84 736.04C130.113 735.815 128.547 734.914 127.485 733.534L117.759 720.897C116.697 719.517 116.227 717.772 116.451 716.046C116.676 714.319 117.578 712.753 118.957 711.691Z" fill="#1D1D1B"/>
<path d="M301.376 684.943C286.688 658.164 263.638 644.687 239.94 656.364C216.243 668.042 205.282 705.154 228.725 727.514C246.492 744.459 258.86 767.818 265.738 783.855C274.21 803.608 284.79 819.812 300.379 817.288C315.967 814.765 323.369 795.125 321.947 773.888C319.81 741.957 318.381 715.946 301.376 684.943Z" fill="url(#paint14_radial)"/>
<path d="M92.5674 794.282C107.825 795.679 121.227 785.532 122.501 771.619" stroke="#1D1D1B" stroke-width="3" stroke-miterlimit="10" stroke-linecap="round"/>
<path d="M223.677 886.022C168.743 919.806 118.924 902.963 85.8879 897.978C142.583 924.981 211.962 909.994 234.66 903.766C235.861 903.437 237.08 903.084 238.311 902.719C255.825 897.519 276.233 888.79 296.553 879.482C315.803 870.664 334.971 861.329 351.515 853.989C366.221 847.443 381.836 843.17 397.825 841.317C401.867 830.101 405.301 818.675 408.111 807.089C365.54 814.472 307.693 834.351 223.677 886.022Z" fill="url(#paint15_radial)"/>
<path d="M223.677 886.022C168.743 919.806 118.924 902.963 85.8879 897.978C142.583 924.981 211.962 909.994 234.66 903.766C235.861 903.437 237.08 903.084 238.311 902.719C255.825 897.519 276.233 888.79 296.553 879.482C315.803 870.664 334.971 861.329 351.515 853.989C366.221 847.443 381.836 843.17 397.825 841.317C401.867 830.101 405.301 818.675 408.111 807.089C365.54 814.472 307.693 834.351 223.677 886.022Z" fill="url(#paint16_radial)"/>
<defs>
<radialGradient id="paint0_radial" cx="0" cy="0" r="1" gradientUnits="userSpaceOnUse" gradientTransform="translate(392.283 576.461) rotate(119.472) scale(308.89)">
<stop offset="0.63788" stop-color="white"/>
<stop offset="0.80085" stop-color="#A0B6BF" stop-opacity="0.9"/>
</radialGradient>
<radialGradient id="paint1_radial" cx="0" cy="0" r="1" gradientUnits="userSpaceOnUse" gradientTransform="translate(392.283 576.461) rotate(119.472) scale(308.89)">
<stop offset="0.63788" stop-color="white"/>
<stop offset="0.80085" stop-color="#A0B6BF" stop-opacity="0.9"/>
</radialGradient>
<radialGradient id="paint2_radial" cx="0" cy="0" r="1" gradientUnits="userSpaceOnUse" gradientTransform="translate(392.283 576.461) rotate(119.472) scale(308.89)">
<stop offset="0.63788" stop-color="white"/>
<stop offset="0.80085" stop-color="#A0B6BF" stop-opacity="0.9"/>
</radialGradient>
<radialGradient id="paint3_radial" cx="0" cy="0" r="1" gradientUnits="userSpaceOnUse" gradientTransform="translate(400.933 698.643) scale(132.946 232.122)">
<stop stop-color="#121212"/>
<stop offset="1" stop-color="#00004C"/>
</radialGradient>
<radialGradient id="paint4_radial" cx="0" cy="0" r="1" gradientUnits="userSpaceOnUse" gradientTransform="translate(285.23 360.309) scale(559.19)">
<stop stop-color="#2525EF"/>
<stop offset="0.13367" stop-color="#2020E9"/>
<stop offset="0.56525" stop-color="#1313D8"/>
<stop offset="0.73753" stop-color="#0B0BD5"/>
<stop offset="1" stop-color="#0303D3"/>
</radialGradient>
<radialGradient id="paint5_radial" cx="0" cy="0" r="1" gradientUnits="userSpaceOnUse" gradientTransform="translate(384.136 681.011) scale(484.922 784.691)">
<stop stop-color="#0F0F1C"/>
<stop offset="0.32984" stop-color="#2525EF"/>
<stop offset="0.35621" stop-color="#2323ED" stop-opacity="0.90551"/>
<stop offset="0.42136" stop-color="#2020E8" stop-opacity="0.69536"/>
<stop offset="0.48973" stop-color="#1C1CE4" stop-opacity="0.50905"/>
<stop offset="0.56008" stop-color="#1919E0" stop-opacity="0.35198"/>
<stop offset="0.63286" stop-color="#1717DD" stop-opacity="0.22407"/>
<stop offset="0.70894" stop-color="#1515DB" stop-opacity="0.12505"/>
<stop offset="0.7897" stop-color="#1414D9" stop-opacity="0.05481"/>
<stop offset="0.87832" stop-color="#1313D8" stop-opacity="0.01321"/>
<stop offset="0.98996" stop-color="#1313D8" stop-opacity="0"/>
</radialGradient>
<radialGradient id="paint6_radial" cx="0" cy="0" r="1" gradientUnits="userSpaceOnUse" gradientTransform="translate(384.136 681.011) scale(484.922 784.691)">
<stop stop-color="#0F0F1C"/>
<stop offset="0.32984" stop-color="#2525EF"/>
<stop offset="0.35621" stop-color="#2323ED" stop-opacity="0.90551"/>
<stop offset="0.42136" stop-color="#2020E8" stop-opacity="0.69536"/>
<stop offset="0.48973" stop-color="#1C1CE4" stop-opacity="0.50905"/>
<stop offset="0.56008" stop-color="#1919E0" stop-opacity="0.35198"/>
<stop offset="0.63286" stop-color="#1717DD" stop-opacity="0.22407"/>
<stop offset="0.70894" stop-color="#1515DB" stop-opacity="0.12505"/>
<stop offset="0.7897" stop-color="#1414D9" stop-opacity="0.05481"/>
<stop offset="0.87832" stop-color="#1313D8" stop-opacity="0.01321"/>
<stop offset="0.98996" stop-color="#1313D8" stop-opacity="0"/>
</radialGradient>
<radialGradient id="paint7_radial" cx="0" cy="0" r="1" gradientUnits="userSpaceOnUse" gradientTransform="translate(384.136 681.011) scale(484.922 784.691)">
<stop stop-color="#0F0F1C"/>
<stop offset="0.32984" stop-color="#2525EF"/>
<stop offset="0.35621" stop-color="#2323ED" stop-opacity="0.90551"/>
<stop offset="0.42136" stop-color="#2020E8" stop-opacity="0.69536"/>
<stop offset="0.48973" stop-color="#1C1CE4" stop-opacity="0.50905"/>
<stop offset="0.56008" stop-color="#1919E0" stop-opacity="0.35198"/>
<stop offset="0.63286" stop-color="#1717DD" stop-opacity="0.22407"/>
<stop offset="0.70894" stop-color="#1515DB" stop-opacity="0.12505"/>
<stop offset="0.7897" stop-color="#1414D9" stop-opacity="0.05481"/>
<stop offset="0.87832" stop-color="#1313D8" stop-opacity="0.01321"/>
<stop offset="0.98996" stop-color="#1313D8" stop-opacity="0"/>
</radialGradient>
<radialGradient id="paint8_radial" cx="0" cy="0" r="1" gradientUnits="userSpaceOnUse" gradientTransform="translate(384.136 681.011) scale(484.922 784.691)">
<stop stop-color="#0F0F1C"/>
<stop offset="0.32984" stop-color="#2525EF"/>
<stop offset="0.35621" stop-color="#2323ED" stop-opacity="0.90551"/>
<stop offset="0.42136" stop-color="#2020E8" stop-opacity="0.69536"/>
<stop offset="0.48973" stop-color="#1C1CE4" stop-opacity="0.50905"/>
<stop offset="0.56008" stop-color="#1919E0" stop-opacity="0.35198"/>
<stop offset="0.63286" stop-color="#1717DD" stop-opacity="0.22407"/>
<stop offset="0.70894" stop-color="#1515DB" stop-opacity="0.12505"/>
<stop offset="0.7897" stop-color="#1414D9" stop-opacity="0.05481"/>
<stop offset="0.87832" stop-color="#1313D8" stop-opacity="0.01321"/>
<stop offset="0.98996" stop-color="#1313D8" stop-opacity="0"/>
</radialGradient>
<radialGradient id="paint9_radial" cx="0" cy="0" r="1" gradientUnits="userSpaceOnUse" gradientTransform="translate(381.23 873.316) scale(497.381)">
<stop offset="0.07469" stop-color="#1D1D1B"/>
<stop offset="0.20155" stop-color="#0F0F3F"/>
<stop offset="0.33706" stop-color="#04045E"/>
<stop offset="0.39802" stop-color="#04045F" stop-opacity="0.70515"/>
<stop offset="0.46888" stop-color="#03035F" stop-opacity="0.44799"/>
<stop offset="0.54921" stop-color="#030360" stop-opacity="0.24734"/>
<stop offset="0.6431" stop-color="#030360" stop-opacity="0.10615"/>
<stop offset="0.76322" stop-color="#030360" stop-opacity="0.02401"/>
<stop offset="1" stop-color="#030360" stop-opacity="0"/>
</radialGradient>
<radialGradient id="paint10_radial" cx="0" cy="0" r="1" gradientUnits="userSpaceOnUse" gradientTransform="translate(66858.6 323387) scale(91155.1 195321)">
<stop offset="0.07469" stop-color="#1D1D1B"/>
<stop offset="0.20155" stop-color="#0F0F3F"/>
<stop offset="0.33706" stop-color="#04045E"/>
<stop offset="0.39802" stop-color="#04045F" stop-opacity="0.70515"/>
<stop offset="0.46888" stop-color="#03035F" stop-opacity="0.44799"/>
<stop offset="0.54921" stop-color="#030360" stop-opacity="0.24734"/>
<stop offset="0.6431" stop-color="#030360" stop-opacity="0.10615"/>
<stop offset="0.76322" stop-color="#030360" stop-opacity="0.02401"/>
<stop offset="1" stop-color="#030360" stop-opacity="0"/>
</radialGradient>
<radialGradient id="paint11_radial" cx="0" cy="0" r="1" gradientUnits="userSpaceOnUse" gradientTransform="translate(223.801 957.616) scale(105.086)">
<stop offset="0.47759" stop-color="white"/>
<stop offset="0.75721" stop-color="#A0B6BF" stop-opacity="0.9"/>
</radialGradient>
<radialGradient id="paint12_radial" cx="0" cy="0" r="1" gradientUnits="userSpaceOnUse" gradientTransform="translate(50723.9 211017) rotate(-102.91) scale(25883.1 1888.21)">
<stop offset="0.63788" stop-color="white"/>
<stop offset="0.80085" stop-color="#A0B6BF" stop-opacity="0.9"/>
</radialGradient>
<radialGradient id="paint13_radial" cx="0" cy="0" r="1" gradientUnits="userSpaceOnUse" gradientTransform="translate(39160.6 145672) rotate(-102.91) scale(18045.6 5083.58)">
<stop offset="0.63788" stop-color="white"/>
<stop offset="0.80085" stop-color="#A0B6BF" stop-opacity="0.9"/>
</radialGradient>
<radialGradient id="paint14_radial" cx="0" cy="0" r="1" gradientUnits="userSpaceOnUse" gradientTransform="translate(388.006 556.516) scale(309.226)">
<stop offset="0.68621" stop-color="white"/>
<stop offset="0.71606" stop-color="#F8FAFB" stop-opacity="0.9931"/>
<stop offset="0.76149" stop-color="#E6ECEE" stop-opacity="0.97411"/>
<stop offset="0.81686" stop-color="#C9D5DB" stop-opacity="0.94304"/>
<stop offset="0.87957" stop-color="#A0B6BF" stop-opacity="0.90022"/>
</radialGradient>
<radialGradient id="paint15_radial" cx="0" cy="0" r="1" gradientUnits="userSpaceOnUse" gradientTransform="translate(90173.8 66822.3) scale(135678 44830.5)">
<stop offset="0.588542" stop-color="white"/>
<stop offset="0.854167" stop-color="#A0B6BF" stop-opacity="0.9"/>
</radialGradient>
<radialGradient id="paint16_radial" cx="0" cy="0" r="1" gradientUnits="userSpaceOnUse" gradientTransform="translate(607.625 745.543) scale(936.377 199.036)">
<stop offset="0.489583" stop-color="white"/>
<stop offset="0.609375" stop-color="#F8FAFB" stop-opacity="0.9931"/>
<stop offset="0.682292" stop-color="#E6ECEE" stop-opacity="0.97411"/>
<stop offset="0.81686" stop-color="#C9D5DB" stop-opacity="0.94304"/>
<stop offset="0.87957" stop-color="#A0B6BF" stop-opacity="0.90022"/>
</radialGradient>
</defs>
</svg>
