<svg width="93" height="94" viewBox="0 0 93 94" fill="none" xmlns="http://www.w3.org/2000/svg">
<g filter="url(#filter0_d)">
<path d="M20.61 83.0405C20.2646 82.6808 20.2646 82.6376 20.2215 79.4433L20.1783 76.2202H15.5163H10.8543L10.4514 75.8748L10.0486 75.5295L10.0054 43.6007C9.99101 26.0463 10.0054 11.4704 10.0486 11.197C10.1061 10.938 10.2932 10.5639 10.4802 10.3768L10.8256 10.0315H46.5099H82.1942L82.5971 10.3768L83 10.7222V43.1258V75.5295L82.5971 75.8748L82.1942 76.2202H77.5179H72.8559V79.3282C72.8559 82.4649 72.7983 82.839 72.2947 83.2275C72.122 83.357 70.6688 83.4002 66.5823 83.4146H61.1002L60.7548 83.0405C60.4095 82.6808 60.4095 82.6376 60.3664 79.4433L60.3232 76.2202H46.5099H32.711V79.3282C32.711 82.4649 32.6534 82.839 32.1498 83.2275C31.9772 83.357 30.5239 83.4002 26.4375 83.4146H20.9553L20.61 83.0405ZM30.2649 78.6663V76.3641H26.4518H22.6388V78.6663V80.9685H26.4518H30.2649V78.6663ZM70.4098 78.6663V76.3641H66.5967H62.7837V78.6663V80.9685H66.5967H70.4098V78.6663ZM80.6258 43.1258V12.4776H46.5243H12.4227V22.1181V31.7586H14.2213H16.0199V24.1326C16.0199 15.7151 15.9912 15.9741 16.912 15.6575C17.2286 15.5424 26.1065 15.4993 46.5531 15.4993C77.892 15.4993 76.4819 15.4705 76.8704 16.1899C76.9855 16.4058 77.0286 24.3772 77.0286 43.3417V70.1912L76.6689 70.5366L76.3236 70.8963H46.5243H16.725L16.3797 70.5222L16.0199 70.1337V62.3205V54.493H14.2213H12.4227V64.1335V73.7741H46.5243H80.6258V43.1258ZM74.5825 43.2697V18.0892H46.5243H18.466V43.2697V68.4502H46.5243H74.5825V43.2697ZM16.0199 43.1978V34.3486H14.2213H12.4227V43.1978V52.0469H14.2213H16.0199V43.1978Z" fill="#7046A9"/>
<path d="M43.6326 60.1621C37.4454 59.0542 32.2222 54.5936 30.2222 48.7374C29.5459 46.7805 29.3301 45.3848 29.3301 43.1257C29.3301 40.8235 29.5459 39.4709 30.2797 37.3846C31.9345 32.5931 36.0928 28.4635 40.9131 26.8231C46.0787 25.0677 51.5465 25.7728 56.0789 28.7944C63.259 33.5715 65.8346 42.9962 62.0503 50.6655C61.1438 52.5072 60.2373 53.7591 58.6977 55.2987C56.0358 57.9462 52.9997 59.529 49.3018 60.1765C47.791 60.4355 45.1146 60.4355 43.6326 60.1621ZM45.3736 56.3778C45.3736 54.8814 45.388 54.8094 45.7478 54.4353C46.3952 53.8022 47.2586 53.9893 47.6183 54.8526C47.7334 55.1548 47.8197 55.8454 47.8197 56.6368V57.9174L48.4385 57.8455C49.6759 57.7016 51.8198 57.0541 53.0717 56.4354C54.5106 55.7447 56.0214 54.7231 56.0214 54.4497C56.0214 54.349 55.5897 53.8454 55.0717 53.3418C54.5537 52.8238 54.0645 52.2626 54.0069 52.09C53.7048 51.3273 54.5681 50.3489 55.3451 50.536C55.5322 50.5935 56.1365 51.0827 56.6833 51.6295C57.23 52.1763 57.7337 52.6223 57.82 52.6223C58.2085 52.6223 59.7049 50.205 60.338 48.5647C60.7697 47.4567 61.0863 46.2337 61.2589 45.0394L61.3453 44.4207H60.0503C58.6402 44.4207 57.8775 44.2049 57.6185 43.73C57.2444 43.0106 57.6185 42.2048 58.4531 41.9746C58.7409 41.9027 59.5035 41.8307 60.151 41.8307H61.3453L61.2445 41.1544C61.1006 40.0321 60.669 38.4781 60.1941 37.327C59.7049 36.1327 58.1222 33.6291 57.8632 33.6291C57.7768 33.6291 57.2013 34.1183 56.5825 34.7082C55.8919 35.3845 55.3595 35.7874 55.1581 35.7874C54.6976 35.7874 54.3235 35.5428 54.0645 35.0536C53.7479 34.4348 53.9494 34.0463 55.1005 32.9096C55.6041 32.3916 56.0214 31.9024 56.0214 31.8161C56.0214 31.629 54.7264 30.7081 53.5753 30.075C52.1508 29.298 50.3234 28.6937 48.7262 28.4779L47.8197 28.3484V29.629C47.8197 31.4851 47.4456 32.1902 46.4528 32.1902C46.2514 32.1902 45.9204 32.0319 45.7334 31.8305C45.388 31.4995 45.3736 31.3844 45.3736 29.9024V28.334L44.7693 28.4059C42.9563 28.6074 40.6685 29.3844 38.9706 30.3628C38.0209 30.9096 37.0425 31.6578 37.0281 31.8161C37.0281 31.888 37.5173 32.4492 38.1073 33.0679C39.3447 34.3341 39.4454 34.6938 38.7692 35.3701C38.0929 36.0464 37.7332 35.9457 36.4669 34.7082C35.8482 34.1183 35.2871 33.6291 35.2151 33.6291C34.8842 33.6435 33.546 35.7874 32.8697 37.3558C32.4668 38.3198 31.9488 40.1904 31.7906 41.2983L31.7186 41.8307H32.8985C33.546 41.8307 34.323 41.9027 34.6108 41.9746C35.5892 42.248 35.8914 43.1977 35.2439 43.9459C34.913 44.3344 34.841 44.3488 33.3158 44.3919L31.733 44.4495L31.805 44.9819C31.9776 46.2049 32.4381 47.8884 32.8985 48.982C33.4597 50.2914 34.9273 52.6223 35.2007 52.6223C35.3014 52.6223 35.7907 52.2051 36.3087 51.7015C37.4454 50.5504 37.8339 50.3489 38.4526 50.6655C38.9418 50.9245 39.1864 51.2986 39.1864 51.759C39.1864 51.9605 38.7835 52.4928 38.1073 53.1835C37.5173 53.8022 37.0281 54.3634 37.0281 54.4641C37.0281 54.6943 39.244 56.1188 40.3951 56.6368C41.7333 57.2412 43.9635 57.8455 45.201 57.9318C45.3305 57.9462 45.3736 57.5433 45.3736 56.3778Z" fill="#7046A9"/>
<path d="M44.6107 49.1692C42.0639 48.3634 40.1934 45.8022 40.1934 43.1258C40.1934 40.7085 41.6466 38.4926 43.9345 37.3847C44.9561 36.8955 45.0856 36.8667 46.5245 36.8667C47.9202 36.8667 48.1072 36.8955 48.9993 37.3271C50.2512 37.9171 50.8555 38.4063 51.6325 39.4279C53.7189 42.1762 53.057 46.2338 50.1792 48.2914C48.6252 49.4138 46.4237 49.7591 44.6107 49.1692ZM48.3374 46.6079C49.1001 46.2194 49.8771 45.3417 50.1936 44.5216C50.5245 43.6438 50.4382 42.1474 50.0066 41.3129C49.0713 39.4855 46.6396 38.7229 44.7402 39.6725C41.6754 41.2121 42.0639 45.8022 45.359 46.8813C46.0065 47.0972 47.6899 46.9389 48.3374 46.6079Z" fill="#7046A9"/>
</g>
<defs>
<filter id="filter0_d" x="0" y="0.0314941" width="93" height="93.3831" filterUnits="userSpaceOnUse" color-interpolation-filters="sRGB">
<feFlood flood-opacity="0" result="BackgroundImageFix"/>
<feColorMatrix in="SourceAlpha" type="matrix" values="0 0 0 0 0 0 0 0 0 0 0 0 0 0 0 0 0 0 127 0" result="hardAlpha"/>
<feOffset/>
<feGaussianBlur stdDeviation="5"/>
<feComposite in2="hardAlpha" operator="out"/>
<feColorMatrix type="matrix" values="0 0 0 0 0.305882 0 0 0 0 0.184314 0 0 0 0 0.470588 0 0 0 1 0"/>
<feBlend mode="normal" in2="BackgroundImageFix" result="effect1_dropShadow"/>
<feBlend mode="normal" in="SourceGraphic" in2="effect1_dropShadow" result="shape"/>
</filter>
</defs>
</svg>
