<svg width="70" height="70" viewBox="0 0 70 70" fill="none" xmlns="http://www.w3.org/2000/svg">
<path d="M57.2617 19.0591C58.5044 19.0591 59.6932 19.0591 60.8819 19.0591C61.8545 19.1131 62.8271 19.0591 63.7457 19.2752C67.474 20.0857 69.9595 23.1656 69.9595 27.056C70.0135 38.6732 70.0135 50.2903 69.9595 61.9074C69.9595 66.5002 66.5554 69.9043 61.9085 69.9043C43.9695 69.9043 26.0305 69.9583 8.03746 69.9043C3.44464 69.9043 0.0405249 66.5003 0.0405249 61.8534C-0.0135083 50.2363 -0.0135083 38.6191 0.0405249 27.002C0.0405249 24.1382 1.33735 21.9229 3.71481 20.2479C5.9842 18.6269 8.63185 17.9244 11.1714 16.8978C24.8958 11.3323 38.6202 5.875 52.3447 0.363619C54.56 -0.500912 56.4512 0.201532 57.0455 2.20076C57.1536 2.63303 57.2077 3.11931 57.2077 3.60561C57.2077 8.41456 57.2077 13.2235 57.2077 18.0324C57.2617 18.4107 57.2617 18.6809 57.2617 19.0591ZM63.6376 57.2065C63.2594 57.2065 62.9892 57.2065 62.665 57.2065C58.5044 57.2065 54.3439 57.3146 50.1293 57.1525C42.7268 56.9363 36.9992 49.6959 38.3501 42.4015C39.5388 36.0255 44.6179 31.8109 51.1019 31.7569C54.9923 31.7569 58.8286 31.7569 62.719 31.7569C62.9892 31.7569 63.3134 31.7569 63.6376 31.7569C63.6376 30.244 63.6376 28.7851 63.6376 27.3802C63.6376 25.8673 63.1513 25.381 61.6384 25.381C43.9155 25.381 26.1926 25.381 8.46975 25.381C6.90279 25.381 6.41647 25.8673 6.41647 27.4342C6.41647 38.7812 6.41647 50.0741 6.41647 61.4211C6.41647 63.0961 6.84875 63.5284 8.52377 63.5284C26.1926 63.5284 43.8615 63.5284 61.5303 63.5284C61.7464 63.5284 61.9085 63.5284 62.1247 63.5284C62.9892 63.4744 63.5836 62.88 63.5836 62.0695C63.6376 60.5025 63.6376 58.9356 63.6376 57.2065ZM63.5836 50.8846C63.5836 46.616 63.5836 42.4014 63.5836 38.2409C63.4755 38.1868 63.4755 38.1868 63.4215 38.1868C59.1529 38.1868 54.8843 38.0788 50.6156 38.2409C47.2115 38.3489 44.6179 41.1046 44.5639 44.4007C44.5098 48.0749 47.3196 50.8846 51.1019 50.9387C55.0463 50.9927 59.0448 50.9387 62.9892 50.9387C63.2053 50.8846 63.3675 50.8846 63.5836 50.8846ZM50.8858 7.92826C41.6461 11.6025 32.5145 15.2768 23.3829 18.897C23.3829 18.9511 23.4369 18.951 23.4369 19.0051C32.5685 19.0051 41.7002 19.0051 50.8858 19.0051C50.8858 15.3308 50.8858 11.7106 50.8858 7.92826Z" fill="#7046A9"/>
</svg>
