<svg width="103" height="98" viewBox="0 0 103 98" fill="none" xmlns="http://www.w3.org/2000/svg">
<path d="M55.8646 0C51.1432 0 48.2765 0.537947 44.1753 2.60743C40.0742 4.67691 35.3498 9.06279 33.3378 12.1288C31.3257 15.1948 30.4711 16.7293 29.2336 21.8677C27.9961 27.0061 27.916 31.6066 27.8388 32.6796C27.7617 33.7525 27.9961 33.9847 27.1444 35.287C26.2927 36.5892 24.898 38.2148 20.5624 41.5748C16.2267 44.9347 16.2267 45.6403 16.0724 46.8661C15.9181 48.0919 16.4938 49.9086 18.4732 51.0844C20.408 52.2367 23.2005 52.3455 27.4531 51.4695C28.9992 51.1491 31.7115 49.4735 31.7115 49.4735C31.7115 49.4735 33.2576 54.0005 33.5692 56.9901C33.866 59.7298 34.3438 63.8158 32.8719 67.8019C31.3999 71.788 30.1625 72.6346 28.3819 73.5547C26.6014 74.4748 23.2718 74.4748 21.88 73.5547C20.4882 72.6346 18.396 71.4823 16.384 69.2599C14.372 67.0376 13.4491 64.8358 10.8851 62.7399C9.33899 61.4759 6.87887 60.8821 4.69177 61.2466C1.3028 61.811 0.685547 62.8369 0.685547 63.3749C0.685547 64.3508 2.42751 64.7712 3.41571 65.3297C6.26755 66.9406 6.6296 68.9542 7.32401 70.7944C8.57039 74.0809 9.12533 76.5649 10.9059 79.9366C12.6864 83.3083 14.8349 86.4243 19.865 89.7343C24.895 93.0443 29.0793 94.8727 30.7055 95.3195C36.1876 96.8584 41.9002 97.4295 47.5821 97.0069C55.8646 96.319 61.6692 95.0902 67.2453 92.0095C72.8213 88.9288 77.7712 84.493 80.4035 81.0419C83.0357 77.5908 85.5136 73.1432 87.2289 67.0082C88.9442 60.8733 88.778 55.9671 88.7127 51.443C88.6204 48.4678 88.2045 45.5111 87.4722 42.6242C87.4722 42.6242 89.4872 43.7736 92.891 44.0029C96.2948 44.2322 98.9211 43.509 100.093 42.7006C101.506 41.7218 102.337 40.784 102.26 38.788C102.183 36.7921 101.562 36.4128 99.9361 35.1841C97.2704 33.2867 94.4481 31.615 91.4992 30.1868C88.2765 28.6494 87.223 27.7469 86.6918 26.5505C85.9944 24.9807 82.9764 16.4823 80.7388 12.5492C78.5013 8.61597 74.0766 4.74746 69.9547 2.85141C65.0285 0.587921 60.5831 0 55.8646 0Z" fill="white"/>
</svg>
